<svg width="966" height="801" viewBox="0 0 966 801" fill="none" xmlns="http://www.w3.org/2000/svg">
<path d="M664.49 306.88C664.49 306.88 765.49 222.25 787.95 179.58C810.41 136.91 839 100.14 839 100.14" stroke="#535461" stroke-width="2" stroke-miterlimit="10"/>
<path d="M825.72 195.53L782.03 185.68C782.03 185.68 792.34 231.76 825.72 195.53Z" fill="#F9A826"/>
<path d="M758.96 148.49L784.1 186.14C784.1 186.14 734.95 189.69 758.96 148.49Z" fill="#F9A826"/>
<path d="M842.91 160.14L802.98 153.14C802.98 153.14 828.06 191.29 842.91 160.14Z" fill="#F9A826"/>
<path d="M783.82 126.49L803.49 152.25C803.49 152.25 768.67 155.55 783.82 126.49Z" fill="#F9A826"/>
<path d="M823.63 121.36C823.63 121.36 857.63 122.98 861.63 126.23C865.63 129.48 856.56 148.53 843.63 145.42C830.7 142.31 823.63 121.36 823.63 121.36Z" fill="#F9A826"/>
<path d="M810.04 90.9697C810.04 90.9697 823.93 116.28 823.41 121.1C822.89 125.92 802.24 131.33 798.07 113.1C793.9 94.8697 810.04 90.9697 810.04 90.9697Z" fill="#F9A826"/>
<path d="M853.234 110.301C854.807 105.321 852.045 100.01 847.066 98.4381C842.087 96.8657 836.776 99.6275 835.203 104.607C833.631 109.586 836.393 114.897 841.372 116.469C846.351 118.041 851.662 115.28 853.234 110.301Z" fill="#FFD037"/>
<path d="M838.434 100.571C840.006 95.5919 837.245 90.2809 832.265 88.7085C827.286 87.1362 821.975 89.8979 820.403 94.877C818.831 99.8562 821.592 105.167 826.571 106.74C831.551 108.312 836.862 105.55 838.434 100.571Z" fill="#FFD037"/>
<path d="M349.46 638.63C349.46 638.63 365.67 590.41 262.91 532.28C262.91 532.28 158.57 501.85 169.24 397.35C169.24 397.35 48.96 485.47 130.35 597.72C211.74 709.97 281.99 685.47 281.99 685.47L349.46 638.63Z" fill="#F9A826"/>
<path d="M318.13 660.41C318.13 660.41 267.99 606.22 219.93 585.27C210.33 580.948 201.508 575.073 193.82 567.88C163.18 539.88 149.82 497.63 157.72 456.88L169.27 397.35" stroke="#535461" stroke-width="2" stroke-miterlimit="10"/>
<path d="M763.68 33.2002H193.07V695.73H763.68V33.2002Z" fill="url(#paint0_linear)"/>
<path d="M757.04 40.9102H199.72V688H757.04V40.9102Z" fill="#F7F7FD"/>
<path d="M374.27 113.85H233.38V125.07H374.27V113.85Z" fill="#E2E2EC"/>
<path d="M474.01 141.28H233.38V152.5H474.01V141.28Z" fill="#E2E2EC"/>
<path d="M730.35 103.13H630.36V189.41H730.35V103.13Z" fill="white"/>
<path d="M729.82 103.63V188.91H630.82V103.63H729.82ZM730.82 102.63H629.82V189.91H730.82V102.63Z" fill="#E2E2EC"/>
<path d="M629.36 103.13H529.37V189.41H629.36V103.13Z" fill="white"/>
<path d="M628.82 103.63V188.91H529.82V103.63H628.82ZM629.82 102.63H528.82V189.91H629.82V102.63Z" fill="#E2E2EC"/>
<path d="M730.35 190.41H630.36V276.69H730.35V190.41Z" fill="white"/>
<path d="M729.82 190.91V276.19H630.82V190.91H729.82ZM730.82 189.91H629.82V277.19H730.82V189.91Z" fill="#E2E2EC"/>
<path d="M629.36 190.41H529.37V276.69H629.36V190.41Z" fill="white"/>
<path d="M628.82 190.91V276.19H529.82V190.91H628.82ZM629.82 189.91H528.82V277.19H629.82V189.91Z" fill="#E2E2EC"/>
<path d="M528.37 190.41H428.38V276.69H528.37V190.41Z" fill="white"/>
<path d="M527.87 190.91V276.19H428.87V190.91H527.87ZM528.87 189.91H427.87V277.19H528.87V189.91Z" fill="#E2E2EC"/>
<path d="M427.38 190.41H327.39V276.69H427.38V190.41Z" fill="white"/>
<path d="M426.88 190.91V276.19H327.88V190.91H426.88ZM427.88 189.91H326.88V277.19H427.88V189.91Z" fill="#E2E2EC"/>
<path d="M326.39 190.41H226.4V276.69H326.39V190.41Z" fill="white"/>
<path d="M325.89 190.91V276.19H226.89V190.91H325.89ZM326.89 189.91H225.89V277.19H326.89V189.91Z" fill="#E2E2EC"/>
<path d="M730.35 277.68H630.36V363.96H730.35V277.68Z" fill="white"/>
<path d="M729.82 278.19V363.47H630.82V278.19H729.82ZM730.82 277.19H629.82V364.47H730.82V277.19Z" fill="#E2E2EC"/>
<path d="M629.36 277.68H529.37V363.96H629.36V277.68Z" fill="white"/>
<path d="M628.82 278.19V363.47H529.82V278.19H628.82ZM629.82 277.19H528.82V364.47H629.82V277.19Z" fill="#E2E2EC"/>
<path d="M528.37 277.68H428.38V363.96H528.37V277.68Z" fill="white"/>
<path d="M527.87 278.19V363.47H428.87V278.19H527.87ZM528.87 277.19H427.87V364.47H528.87V277.19Z" fill="#E2E2EC"/>
<path d="M427.38 277.68H327.39V363.96H427.38V277.68Z" fill="white"/>
<path d="M426.88 278.19V363.47H327.88V278.19H426.88ZM427.88 277.19H326.88V364.47H427.88V277.19Z" fill="#E2E2EC"/>
<path d="M326.39 277.68H226.4V363.96H326.39V277.68Z" fill="white"/>
<path d="M325.89 278.19V363.47H226.89V278.19H325.89ZM326.89 277.19H225.89V364.47H326.89V277.19Z" fill="#E2E2EC"/>
<path d="M730.35 364.96H630.36V451.24H730.35V364.96Z" fill="white"/>
<path d="M729.82 365.46V450.74H630.82V365.46H729.82ZM730.82 364.46H629.82V451.74H730.82V364.46Z" fill="#E2E2EC"/>
<path d="M629.36 364.96H529.37V451.24H629.36V364.96Z" fill="white"/>
<path d="M628.82 365.46V450.74H529.82V365.46H628.82ZM629.82 364.46H528.82V451.74H629.82V364.46Z" fill="#E2E2EC"/>
<path d="M528.37 364.96H428.38V451.24H528.37V364.96Z" fill="white"/>
<path d="M527.87 365.46V450.74H428.87V365.46H527.87ZM528.87 364.46H427.87V451.74H528.87V364.46Z" fill="#E2E2EC"/>
<path d="M427.38 364.96H327.39V451.24H427.38V364.96Z" fill="white"/>
<path d="M426.88 365.46V450.74H327.88V365.46H426.88ZM427.88 364.46H326.88V451.74H427.88V364.46Z" fill="#E2E2EC"/>
<path d="M326.39 364.96H226.4V451.24H326.39V364.96Z" fill="white"/>
<path d="M325.89 365.46V450.74H226.89V365.46H325.89ZM326.89 364.46H225.89V451.74H326.89V364.46Z" fill="#E2E2EC"/>
<path d="M730.35 452.23H630.36V538.51H730.35V452.23Z" fill="white"/>
<path d="M729.82 452.74V538.01H630.82V452.74H729.82ZM730.82 451.74H629.82V539.01H730.82V451.74Z" fill="#E2E2EC"/>
<path d="M629.36 452.23H529.37V538.51H629.36V452.23Z" fill="white"/>
<path d="M628.82 452.74V538.01H529.82V452.74H628.82ZM629.82 451.74H528.82V539.01H629.82V451.74Z" fill="#E2E2EC"/>
<path d="M528.37 452.23H428.38V538.51H528.37V452.23Z" fill="white"/>
<path d="M527.87 452.74V538.01H428.87V452.74H527.87ZM528.87 451.74H427.87V539.01H528.87V451.74Z" fill="#E2E2EC"/>
<path d="M427.38 452.23H327.39V538.51H427.38V452.23Z" fill="white"/>
<path d="M426.88 452.74V538.01H327.88V452.74H426.88ZM427.88 451.74H326.88V539.01H427.88V451.74Z" fill="#E2E2EC"/>
<path d="M326.39 452.23H226.4V538.51H326.39V452.23Z" fill="white"/>
<path d="M325.89 452.74V538.01H226.89V452.74H325.89ZM326.89 451.74H225.89V539.01H326.89V451.74Z" fill="#E2E2EC"/>
<path d="M730.35 539.51H630.36V625.79H730.35V539.51Z" fill="white"/>
<path d="M729.82 540.01V625.29H630.82V540.01H729.82ZM730.82 539.01H629.82V626.29H730.82V539.01Z" fill="#E2E2EC"/>
<path d="M629.36 539.51H529.37V625.79H629.36V539.51Z" fill="white"/>
<path d="M628.82 540.01V625.29H529.82V540.01H628.82ZM629.82 539.01H528.82V626.29H629.82V539.01Z" fill="#E2E2EC"/>
<path d="M528.37 539.51H428.38V625.79H528.37V539.51Z" fill="white"/>
<path d="M527.87 540.01V625.29H428.87V540.01H527.87ZM528.87 539.01H427.87V626.29H528.87V539.01Z" fill="#E2E2EC"/>
<path d="M427.38 539.51H327.39V625.79H427.38V539.51Z" fill="white"/>
<path d="M426.88 540.01V625.29H327.88V540.01H426.88ZM427.88 539.01H326.88V626.29H427.88V539.01Z" fill="#E2E2EC"/>
<path d="M326.39 539.51H226.4V625.79H326.39V539.51Z" fill="white"/>
<path d="M325.89 540.01V625.29H226.89V540.01H325.89ZM326.89 539.01H225.89V626.29H326.89V539.01Z" fill="#E2E2EC"/>
<path d="M436.42 704.89C439.28 702.72 441.97 700.16 442.8 697.04C443.226 695.389 443 693.637 442.17 692.148C441.34 690.659 439.968 689.546 438.34 689.04C434.25 687.76 429.88 690.04 426.56 692.41C423.24 694.78 419.45 697.41 415.11 696.92C419.6 693.67 421.74 688.4 420.5 683.61C420.287 682.578 419.764 681.636 419 680.91C416.73 678.91 412.61 679.78 409.89 681.34C401.24 686.34 398.83 695.89 398.78 704.52C397.91 701.41 398.64 698.17 398.62 694.97C398.6 691.77 397.53 688.24 394.23 686.52C392.118 685.604 389.831 685.164 387.53 685.23C383.64 685.11 379.31 685.43 376.66 687.75C373.36 690.63 374.22 695.47 377.09 698.64C379.96 701.81 384.33 703.8 388.34 705.99C391.4 707.66 394.5 709.61 396.34 712.25C396.581 712.6 396.783 712.975 396.94 713.37H421.31C426.678 711.179 431.754 708.331 436.42 704.89V704.89Z" fill="#F9A826"/>
<path d="M239.59 209.23C242.738 209.23 245.29 206.678 245.29 203.53C245.29 200.382 242.738 197.83 239.59 197.83C236.442 197.83 233.89 200.382 233.89 203.53C233.89 206.678 236.442 209.23 239.59 209.23Z" fill="#FC6681"/>
<path d="M253.83 209.23C256.978 209.23 259.53 206.678 259.53 203.53C259.53 200.382 256.978 197.83 253.83 197.83C250.682 197.83 248.13 200.382 248.13 203.53C248.13 206.678 250.682 209.23 253.83 209.23Z" fill="#FFD037"/>
<path d="M440.87 293.73C444.018 293.73 446.57 291.178 446.57 288.03C446.57 284.882 444.018 282.33 440.87 282.33C437.722 282.33 435.17 284.882 435.17 288.03C435.17 291.178 437.722 293.73 440.87 293.73Z" fill="#F9A826"/>
<path d="M455.12 293.73C458.268 293.73 460.82 291.178 460.82 288.03C460.82 284.882 458.268 282.33 455.12 282.33C451.972 282.33 449.42 284.882 449.42 288.03C449.42 291.178 451.972 293.73 455.12 293.73Z" fill="#F9A826"/>
<path d="M745.64 457.03C748.788 457.03 751.34 454.478 751.34 451.33C751.34 448.182 748.788 445.63 745.64 445.63C742.492 445.63 739.94 448.182 739.94 451.33C739.94 454.478 742.492 457.03 745.64 457.03Z" fill="#F9A826"/>
<path d="M748.49 450.39C751.638 450.39 754.19 447.838 754.19 444.69C754.19 441.542 751.638 438.99 748.49 438.99C745.342 438.99 742.79 441.542 742.79 444.69C742.79 447.838 745.342 450.39 748.49 450.39Z" fill="#F9A826"/>
<path d="M751.34 444.69C754.488 444.69 757.04 442.138 757.04 438.99C757.04 435.842 754.488 433.29 751.34 433.29C748.192 433.29 745.64 435.842 745.64 438.99C745.64 442.138 748.192 444.69 751.34 444.69Z" fill="#F9A826"/>
<path d="M645 209.23C648.148 209.23 650.7 206.678 650.7 203.53C650.7 200.382 648.148 197.83 645 197.83C641.852 197.83 639.3 200.382 639.3 203.53C639.3 206.678 641.852 209.23 645 209.23Z" fill="#F9A826"/>
<path d="M659.24 209.23C662.388 209.23 664.94 206.678 664.94 203.53C664.94 200.382 662.388 197.83 659.24 197.83C656.092 197.83 653.54 200.382 653.54 203.53C653.54 206.678 656.092 209.23 659.24 209.23Z" fill="#F9A826"/>
<path d="M673.49 209.23C676.638 209.23 679.19 206.678 679.19 203.53C679.19 200.382 676.638 197.83 673.49 197.83C670.342 197.83 667.79 200.382 667.79 203.53C667.79 206.678 670.342 209.23 673.49 209.23Z" fill="#F9A826"/>
<path d="M687.73 209.23C690.878 209.23 693.43 206.678 693.43 203.53C693.43 200.382 690.878 197.83 687.73 197.83C684.582 197.83 682.03 200.382 682.03 203.53C682.03 206.678 684.582 209.23 687.73 209.23Z" fill="#F9A826"/>
<path d="M645 385.82C648.148 385.82 650.7 383.268 650.7 380.12C650.7 376.972 648.148 374.42 645 374.42C641.852 374.42 639.3 376.972 639.3 380.12C639.3 383.268 641.852 385.82 645 385.82Z" fill="#F9A826"/>
<path d="M659.24 385.82C662.388 385.82 664.94 383.268 664.94 380.12C664.94 376.972 662.388 374.42 659.24 374.42C656.092 374.42 653.54 376.972 653.54 380.12C653.54 383.268 656.092 385.82 659.24 385.82Z" fill="#F9A826"/>
<path d="M673.49 385.82C676.638 385.82 679.19 383.268 679.19 380.12C679.19 376.972 676.638 374.42 673.49 374.42C670.342 374.42 667.79 376.972 667.79 380.12C667.79 383.268 670.342 385.82 673.49 385.82Z" fill="#F9A826"/>
<path d="M687.73 385.82C690.878 385.82 693.43 383.268 693.43 380.12C693.43 376.972 690.878 374.42 687.73 374.42C684.582 374.42 682.03 376.972 682.03 380.12C682.03 383.268 684.582 385.82 687.73 385.82Z" fill="#F9A826"/>
<path d="M340.23 293.73C343.378 293.73 345.93 291.178 345.93 288.03C345.93 284.882 343.378 282.33 340.23 282.33C337.082 282.33 334.53 284.882 334.53 288.03C334.53 291.178 337.082 293.73 340.23 293.73Z" fill="#FFD037"/>
<path d="M239.59 380.13C242.738 380.13 245.29 377.578 245.29 374.43C245.29 371.282 242.738 368.73 239.59 368.73C236.442 368.73 233.89 371.282 233.89 374.43C233.89 377.578 236.442 380.13 239.59 380.13Z" fill="#FC6681"/>
<defs>
<linearGradient id="paint0_linear" x1="478.38" y1="695.72" x2="478.38" y2="33.2002" gradientUnits="userSpaceOnUse">
<stop stop-color="#808080" stop-opacity="0.25"/>
<stop offset="0.54" stop-color="#808080" stop-opacity="0.12"/>
<stop offset="1" stop-color="#808080" stop-opacity="0.1"/>
</linearGradient>
</defs>
</svg>
