<svg width="575" height="575" viewBox="0 0 575 575" fill="none" xmlns="http://www.w3.org/2000/svg">
<g clip-path="url(#clip0)">
<path d="M575 0H0V575H575V0Z" fill="#F9A826"/>
<g filter="url(#filter0_d)">
<path d="M546 39H29V537H546V39Z" fill="white"/>
<path d="M96.0679 121.316H87.9679V114.776H87.1039V122.912H87.9679V122.168H96.0679V122.876H96.9319V114.776H96.0679V121.316ZM94.0639 117.224H92.3479V115.664H94.0639V117.224ZM94.0639 119.516H92.3479V117.944H94.0639V119.516ZM89.8639 117.944H91.5679V119.516H89.8639V117.944ZM89.8639 115.664H91.5679V117.224H89.8639V115.664ZM86.7319 112.748V113.576H91.5079V114.908H89.1079V120.272H94.8439V114.908H92.3959V113.576H97.2679V112.748H86.7319ZM100.82 112.028C100.244 113.876 99.2959 115.7 98.2639 116.9C98.4079 117.116 98.6479 117.584 98.7319 117.8C99.1279 117.332 99.4999 116.792 99.8599 116.192V122.912H100.712V114.596C101.072 113.84 101.384 113.048 101.648 112.256L100.82 112.028ZM102.872 114.968H105.068V116.324H102.872V114.968ZM106.028 113.408C105.836 113.72 105.608 114.056 105.368 114.308H102.956C103.232 114.008 103.472 113.708 103.7 113.408H106.028ZM108.176 116.324H105.884V114.968H108.176V116.324ZM108.752 117.332C108.332 117.74 107.684 118.28 107.108 118.664C106.88 118.136 106.688 117.56 106.532 116.96H109.016V114.308H106.352C106.664 113.924 106.976 113.48 107.216 113.06L106.664 112.688L106.508 112.736H104.156C104.288 112.532 104.408 112.328 104.516 112.136L103.664 111.98C103.172 112.904 102.284 114.08 101.048 114.956C101.264 115.052 101.552 115.28 101.708 115.46C101.828 115.364 101.948 115.268 102.056 115.172V116.96H104.336C103.472 117.5 102.344 117.968 101.324 118.268C101.48 118.424 101.732 118.724 101.852 118.892C102.572 118.628 103.376 118.268 104.108 117.86C104.312 118.028 104.48 118.196 104.636 118.376C103.82 119.012 102.476 119.648 101.432 119.96C101.6 120.116 101.792 120.392 101.888 120.572C102.896 120.2 104.144 119.54 104.996 118.88C105.152 119.12 105.272 119.36 105.356 119.6C104.396 120.536 102.62 121.52 101.204 121.952C101.384 122.12 101.588 122.396 101.708 122.612C102.98 122.132 104.516 121.244 105.56 120.368C105.68 121.112 105.512 121.736 105.176 121.976C104.96 122.156 104.744 122.18 104.444 122.18C104.216 122.18 103.856 122.168 103.472 122.132C103.616 122.348 103.676 122.684 103.688 122.888C104.024 122.912 104.36 122.924 104.612 122.924C105.092 122.912 105.416 122.84 105.764 122.552C106.736 121.82 106.712 119.168 104.72 117.5C104.996 117.332 105.248 117.152 105.476 116.96H105.764C106.328 119.348 107.372 121.388 108.98 122.396C109.1 122.18 109.376 121.856 109.568 121.688C108.68 121.196 107.96 120.344 107.408 119.3C108.02 118.928 108.8 118.376 109.376 117.86L108.752 117.332ZM111.104 118.76C110.972 119.804 110.744 120.884 110.372 121.616C110.54 121.676 110.888 121.832 111.02 121.928C111.404 121.16 111.668 120.02 111.836 118.892L111.104 118.76ZM113.96 117.8C114.056 118.088 114.128 118.352 114.164 118.568L114.848 118.28C114.704 117.608 114.284 116.564 113.828 115.772L113.204 116.012C113.372 116.336 113.54 116.696 113.684 117.056L112.076 117.14C112.844 116.132 113.732 114.764 114.38 113.648L113.648 113.324C113.336 113.96 112.904 114.74 112.436 115.484C112.268 115.256 112.052 114.992 111.812 114.728C112.232 114.068 112.748 113.084 113.156 112.256L112.388 111.968C112.148 112.628 111.716 113.552 111.332 114.236C111.212 114.116 111.08 113.984 110.96 113.876L110.48 114.428C111.032 114.944 111.632 115.64 111.98 116.18C111.74 116.552 111.5 116.888 111.272 117.188C110.96 117.2 110.66 117.212 110.396 117.224L110.48 118.028C111.02 117.992 111.632 117.956 112.292 117.908V122.912H113.072V117.86L113.96 117.8ZM119.516 119.9V118.52H120.464V119.9H119.516ZM117.98 119.9V118.52H118.904V119.9H117.98ZM116.48 119.9V118.52H117.38V119.9H116.48ZM120.116 114.992V116.276H115.976V114.992H120.116ZM121.22 117.824H115.952C115.964 117.536 115.976 117.272 115.976 117.008H120.98V114.248H115.172V116.876C115.172 118.028 115.112 119.504 114.632 120.824C114.56 120.236 114.332 119.384 114.044 118.724L113.42 118.916C113.696 119.6 113.936 120.5 113.972 121.088L114.608 120.908C114.428 121.376 114.2 121.832 113.9 122.24C114.08 122.336 114.416 122.588 114.548 122.744C115.256 121.772 115.628 120.536 115.808 119.324V122.912H116.48V120.584H117.38V122.792H117.98V120.584H118.904V122.792H119.516V120.584H120.464V122.06C120.464 122.168 120.44 122.192 120.368 122.192C120.272 122.192 120.02 122.192 119.732 122.18C119.828 122.384 119.948 122.696 119.972 122.912C120.416 122.912 120.728 122.888 120.956 122.78C121.172 122.636 121.22 122.42 121.22 122.072V117.824ZM114.716 112.688V113.468H121.268V112.688H114.716ZM124.964 116.96H127.76V117.788H124.964V116.96ZM127.76 114.896H124.964V114.092H127.76V114.896ZM127.76 116.324H124.964V115.532H127.76V116.324ZM133.328 119.984V119.252H128.408V118.508H132.992V117.788H128.612V116.96H132.092V116.324H128.612V115.532H132.056V114.896H128.612V114.092H132.524V113.384H128.588C128.816 113 129.068 112.544 129.308 112.1L128.312 111.956C128.18 112.364 127.928 112.928 127.688 113.384H125.372C125.66 112.952 125.912 112.532 126.128 112.124L125.204 111.944C124.676 113.024 123.704 114.428 122.372 115.472C122.564 115.592 122.864 115.856 123.008 116.06C123.416 115.724 123.788 115.352 124.136 114.98V118.508H127.532V119.252H122.684V119.984H126.788C125.648 120.872 123.908 121.664 122.396 122.048C122.588 122.216 122.852 122.552 122.984 122.78C124.508 122.3 126.308 121.376 127.532 120.332V122.9H128.408V120.308C129.632 121.34 131.444 122.24 132.992 122.696C133.124 122.468 133.376 122.144 133.568 121.964C132.056 121.592 130.316 120.848 129.188 119.984H133.328ZM141.104 120.38C141.092 119.804 141.08 118.796 141.068 118.112C141.968 117.692 142.82 117.344 143.492 117.08C143.804 116.96 144.236 116.792 144.536 116.708L144.152 115.808C143.816 115.976 143.528 116.12 143.168 116.276C142.544 116.564 141.824 116.852 141.008 117.236C140.828 116.528 140.204 116.156 139.436 116.156C138.908 116.156 138.224 116.324 137.792 116.6C138.224 116.048 138.596 115.388 138.86 114.776C140.156 114.728 141.62 114.62 142.796 114.44L142.808 113.552C141.68 113.744 140.384 113.852 139.172 113.912C139.34 113.372 139.448 112.88 139.532 112.544L138.548 112.46C138.524 112.868 138.416 113.408 138.248 113.936C137.972 113.948 137.72 113.948 137.468 113.948C136.928 113.948 136.1 113.9 135.464 113.828V114.728C136.112 114.776 136.916 114.8 137.42 114.8H137.912C137.468 115.736 136.688 116.96 135.176 118.424L135.992 119.036C136.4 118.556 136.736 118.112 137.072 117.788C137.624 117.296 138.344 116.912 139.124 116.912C139.64 116.912 140.072 117.152 140.192 117.644C138.812 118.364 137.396 119.252 137.396 120.656C137.396 122.108 138.764 122.468 140.468 122.468C141.5 122.468 142.82 122.384 143.72 122.276L143.744 121.304C142.7 121.484 141.428 121.592 140.504 121.592C139.28 121.592 138.356 121.46 138.356 120.524C138.356 119.744 139.124 119.132 140.228 118.532C140.228 119.156 140.216 119.924 140.18 120.38H141.104ZM151.76 119.192C151.1 119.192 150.548 118.76 150.548 118.016C150.548 117.248 151.136 116.768 151.748 116.768C152.216 116.768 152.612 116.984 152.804 117.5C152.912 118.628 152.456 119.192 151.76 119.192ZM153.596 114.896C155.336 114.896 156.416 114.92 157.088 114.956L157.1 114.056C156.524 114.056 155.06 114.044 153.62 114.044H153.44C153.44 113.732 153.452 113.456 153.452 113.276L153.512 112.532H152.42C152.444 112.676 152.48 113.024 152.492 113.276C152.504 113.444 152.516 113.72 152.516 114.056C150.752 114.08 148.52 114.152 147.2 114.176L147.224 115.112C148.712 115.004 150.728 114.92 152.528 114.908C152.54 115.316 152.54 115.736 152.54 116.084C152.3 116 152.036 115.952 151.748 115.952C150.62 115.952 149.648 116.852 149.648 118.028C149.648 119.312 150.608 120.02 151.616 120.02C152.012 120.02 152.348 119.924 152.636 119.72C152.144 120.776 151.04 121.424 149.48 121.784L150.308 122.588C153.068 121.76 153.848 119.972 153.848 118.364C153.848 117.776 153.716 117.248 153.464 116.84C153.452 116.3 153.44 115.568 153.44 114.896H153.596ZM163.988 121.604C163.1 121.604 162.416 121.268 162.416 120.68C162.416 120.272 162.824 119.948 163.364 119.948C164.264 119.948 164.828 120.596 164.936 121.532C164.648 121.58 164.324 121.604 163.988 121.604ZM166.436 112.976C166.304 113.012 166.136 113.036 165.788 113.072C165.164 113.132 162.344 113.216 161.732 113.216C161.492 113.216 161.156 113.216 160.892 113.18L160.916 114.176C161.168 114.128 161.444 114.116 161.72 114.104C162.332 114.068 164.672 113.96 165.296 113.936C164.708 114.464 163.232 115.712 162.572 116.264C161.876 116.84 160.352 118.112 159.368 118.928L160.064 119.636C161.576 118.1 162.656 117.272 164.612 117.272C166.112 117.272 167.288 118.124 167.288 119.288C167.288 120.26 166.748 120.944 165.812 121.304C165.656 120.2 164.852 119.204 163.364 119.204C162.26 119.204 161.528 119.948 161.528 120.764C161.528 121.748 162.524 122.468 164.144 122.468C166.652 122.468 168.248 121.22 168.248 119.3C168.248 117.692 166.82 116.492 164.84 116.492C164.312 116.492 163.772 116.564 163.232 116.744C164.144 115.976 165.74 114.572 166.328 114.128C166.508 113.996 166.772 113.816 166.988 113.672L166.436 112.976ZM181.136 115.712C180.572 115.28 179.216 114.512 178.352 114.128L177.884 114.872C178.676 115.232 179.96 115.964 180.596 116.504L181.136 115.712ZM176.816 113.912C176.216 114.104 175.592 114.248 174.968 114.344C175.16 113.66 175.316 112.94 175.436 112.508L174.368 112.412C174.344 113.048 174.176 113.804 173.996 114.464C173.54 114.5 173.096 114.524 172.676 114.524C172.16 114.524 171.656 114.5 171.212 114.44L171.284 115.34C171.728 115.364 172.22 115.376 172.664 115.376C173.012 115.376 173.36 115.364 173.708 115.34C173.168 116.732 172.16 118.628 171.164 119.78L172.1 120.26C173.048 118.976 174.104 116.912 174.692 115.232C175.472 115.136 176.216 114.98 176.84 114.8L176.816 113.912ZM177.44 120.548C177.44 121.136 177.116 121.676 176.144 121.676C175.22 121.676 174.776 121.304 174.776 120.752C174.776 120.212 175.352 119.816 176.228 119.816C176.648 119.816 177.056 119.876 177.428 119.984C177.44 120.2 177.44 120.392 177.44 120.548ZM177.272 116.18C177.296 117.008 177.356 118.172 177.392 119.144C177.044 119.072 176.66 119.036 176.264 119.036C174.92 119.036 173.888 119.744 173.888 120.836C173.888 122.012 174.956 122.552 176.264 122.552C177.728 122.552 178.352 121.772 178.352 120.824C178.352 120.692 178.352 120.524 178.34 120.344C179.108 120.716 179.744 121.244 180.248 121.7L180.764 120.884C180.152 120.356 179.324 119.768 178.304 119.396C178.28 118.676 178.232 117.896 178.22 117.464C178.208 117.02 178.196 116.672 178.232 116.18H177.272ZM185.792 113.54C186.704 113.792 189.284 114.32 190.412 114.476L190.64 113.54C189.584 113.444 187.064 112.952 186.044 112.628L185.792 113.54ZM185.78 114.788L184.76 114.656C184.688 115.904 184.4 118.4 184.16 119.48L185.06 119.696C185.144 119.504 185.252 119.3 185.42 119.096C186.26 118.1 187.508 117.524 189.092 117.524C190.304 117.524 191.18 118.184 191.18 119.132C191.18 120.752 189.344 121.832 185.6 121.376L185.888 122.36C190.304 122.732 192.188 121.292 192.188 119.156C192.188 117.764 190.976 116.672 189.152 116.672C187.736 116.672 186.452 117.104 185.312 118.1C185.42 117.332 185.624 115.604 185.78 114.788ZM198.728 117.44C198.728 118.148 199.292 118.712 200 118.712C200.708 118.712 201.272 118.148 201.272 117.44C201.272 116.732 200.708 116.168 200 116.168C199.292 116.168 198.728 116.732 198.728 117.44ZM210.728 117.44C210.728 118.148 211.292 118.712 212 118.712C212.708 118.712 213.272 118.148 213.272 117.44C213.272 116.732 212.708 116.168 212 116.168C211.292 116.168 210.728 116.732 210.728 117.44ZM222.728 117.44C222.728 118.148 223.292 118.712 224 118.712C224.708 118.712 225.272 118.148 225.272 117.44C225.272 116.732 224.708 116.168 224 116.168C223.292 116.168 222.728 116.732 222.728 117.44ZM234.728 117.44C234.728 118.148 235.292 118.712 236 118.712C236.708 118.712 237.272 118.148 237.272 117.44C237.272 116.732 236.708 116.168 236 116.168C235.292 116.168 234.728 116.732 234.728 117.44Z" fill="black"/>
<path d="M141.703 218.246C140.895 225.164 138.334 230.51 134.021 234.283C129.739 238.027 124.034 239.898 116.906 239.898C109.18 239.898 102.98 237.128 98.3086 231.588C93.6667 226.048 91.3457 218.635 91.3457 209.352V203.062C91.3457 196.983 92.4238 191.637 94.5801 187.025C96.7663 182.413 99.8509 178.88 103.834 176.424C107.817 173.938 112.429 172.695 117.67 172.695C124.618 172.695 130.188 174.642 134.381 178.535C138.574 182.398 141.014 187.759 141.703 194.617H133.033C132.285 189.406 130.652 185.633 128.137 183.297C125.651 180.961 122.162 179.793 117.67 179.793C112.16 179.793 107.832 181.829 104.688 185.902C101.573 189.975 100.016 195.77 100.016 203.287V209.621C100.016 216.719 101.498 222.364 104.463 226.557C107.428 230.749 111.576 232.846 116.906 232.846C121.698 232.846 125.367 231.768 127.912 229.611C130.488 227.425 132.195 223.637 133.033 218.246H141.703ZM161.244 239H152.934V170H161.244V239ZM183.615 239H175.305V190.395H183.615V239ZM174.631 177.502C174.631 176.154 175.035 175.016 175.844 174.088C176.682 173.16 177.91 172.695 179.527 172.695C181.145 172.695 182.372 173.16 183.211 174.088C184.049 175.016 184.469 176.154 184.469 177.502C184.469 178.85 184.049 179.973 183.211 180.871C182.372 181.77 181.145 182.219 179.527 182.219C177.91 182.219 176.682 181.77 175.844 180.871C175.035 179.973 174.631 178.85 174.631 177.502ZM238.016 215.236C238.016 222.633 236.324 228.593 232.939 233.115C229.555 237.637 224.973 239.898 219.193 239.898C213.294 239.898 208.652 238.027 205.268 234.283V257.688H196.957V190.395H204.549L204.953 195.785C208.337 191.592 213.039 189.496 219.059 189.496C224.898 189.496 229.51 191.697 232.895 196.1C236.309 200.502 238.016 206.626 238.016 214.473V215.236ZM229.705 214.293C229.705 208.812 228.537 204.485 226.201 201.311C223.865 198.136 220.661 196.549 216.588 196.549C211.557 196.549 207.783 198.78 205.268 203.242V226.467C207.753 230.899 211.557 233.115 216.678 233.115C220.661 233.115 223.82 231.543 226.156 228.398C228.522 225.224 229.705 220.522 229.705 214.293ZM289.766 215.236C289.766 222.663 288.059 228.638 284.645 233.16C281.23 237.652 276.648 239.898 270.898 239.898C264.759 239.898 260.012 237.727 256.658 233.385L256.254 239H248.617V170H256.928V195.74C260.282 191.577 264.909 189.496 270.809 189.496C276.708 189.496 281.335 191.727 284.689 196.189C288.074 200.652 289.766 206.761 289.766 214.518V215.236ZM281.455 214.293C281.455 208.633 280.362 204.26 278.176 201.176C275.99 198.091 272.845 196.549 268.742 196.549C263.262 196.549 259.324 199.094 256.928 204.186V225.209C259.473 230.3 263.441 232.846 268.832 232.846C272.815 232.846 275.915 231.303 278.131 228.219C280.347 225.134 281.455 220.492 281.455 214.293ZM309.307 239H300.996V190.395H309.307V239ZM300.322 177.502C300.322 176.154 300.727 175.016 301.535 174.088C302.374 173.16 303.602 172.695 305.219 172.695C306.836 172.695 308.064 173.16 308.902 174.088C309.741 175.016 310.16 176.154 310.16 177.502C310.16 178.85 309.741 179.973 308.902 180.871C308.064 181.77 306.836 182.219 305.219 182.219C303.602 182.219 302.374 181.77 301.535 180.871C300.727 179.973 300.322 178.85 300.322 177.502ZM346.143 197.852C344.885 197.642 343.522 197.537 342.055 197.537C336.604 197.537 332.906 199.858 330.959 204.5V239H322.648V190.395H330.734L330.869 196.01C333.594 191.667 337.458 189.496 342.459 189.496C344.076 189.496 345.304 189.706 346.143 190.125V197.852ZM350.904 214.293C350.904 206.836 352.671 200.846 356.205 196.324C359.739 191.772 364.366 189.496 370.086 189.496C375.776 189.496 380.283 191.443 383.607 195.336V170H391.918V239H384.281L383.877 233.789C380.553 237.862 375.926 239.898 369.996 239.898C364.366 239.898 359.769 237.592 356.205 232.98C352.671 228.368 350.904 222.349 350.904 214.922V214.293ZM359.215 215.236C359.215 220.747 360.353 225.059 362.629 228.174C364.905 231.288 368.049 232.846 372.062 232.846C377.333 232.846 381.182 230.48 383.607 225.748V203.422C381.122 198.84 377.303 196.549 372.152 196.549C368.079 196.549 364.905 198.121 362.629 201.266C360.353 204.41 359.215 209.067 359.215 215.236Z" fill="black"/>
<path d="M89.102 295.522C89.102 295.984 89.036 296.556 88.97 297.062C88.684 298.844 87.98 302.914 87.98 306.104C87.98 309.052 88.354 311.45 88.794 313.012L90.378 312.88C90.356 312.66 90.334 312.352 90.334 312.132C90.312 311.868 90.356 311.472 90.422 311.164C90.642 310.086 91.412 307.864 91.962 306.346L91.038 305.62C90.686 306.5 90.158 307.842 89.806 308.832C89.652 307.754 89.608 306.874 89.608 305.818C89.608 303.376 90.246 299.152 90.686 297.128C90.752 296.732 90.928 296.05 91.06 295.698L89.102 295.522ZM105.492 294.092C106.218 294.092 106.812 294.686 106.812 295.412C106.812 296.16 106.218 296.732 105.492 296.732C104.744 296.732 104.172 296.16 104.172 295.412C104.172 294.686 104.744 294.092 105.492 294.092ZM99.948 309.206C99.948 310.35 99.486 311.208 97.814 311.208C96.318 311.208 95.35 310.68 95.35 309.58C95.35 308.656 96.362 308.018 97.902 308.018C98.584 308.018 99.244 308.106 99.926 308.304C99.948 308.656 99.948 308.964 99.948 309.206ZM103.886 297.062C104.304 297.458 104.854 297.7 105.492 297.7C106.768 297.7 107.802 296.71 107.802 295.412C107.802 294.136 106.768 293.102 105.492 293.102C104.194 293.102 103.204 294.136 103.204 295.412C103.204 295.786 103.292 296.116 103.424 296.424C100.96 296.732 98.078 296.82 94.8 296.578V298.14C96.538 298.206 98.166 298.228 99.684 298.184V301.726C97.99 301.77 96.208 301.748 94.448 301.616V303.244C96.186 303.332 97.99 303.332 99.706 303.288C99.728 304.432 99.794 305.73 99.86 306.83C99.244 306.742 98.628 306.676 97.946 306.676C95.086 306.676 93.788 308.15 93.788 309.668C93.788 311.736 95.548 312.748 97.968 312.748C100.3 312.748 101.576 311.692 101.576 309.91C101.576 309.624 101.576 309.294 101.554 308.92C102.852 309.536 104.084 310.46 105.162 311.582L106.086 310.042C105.03 309.074 103.512 307.93 101.466 307.248C101.422 305.994 101.334 304.586 101.312 303.244C102.808 303.156 104.194 303.046 105.338 302.914V301.308C104.128 301.44 102.764 301.572 101.29 301.66V298.118C102.214 298.074 103.072 298.008 103.886 297.92V297.062ZM125.182 296.864C122.52 297.458 119.308 297.81 116.69 297.92C116.8 297.436 116.866 296.996 116.932 296.666C117.042 296.094 117.174 295.412 117.328 294.84L115.37 294.73C115.392 295.324 115.37 295.83 115.26 296.534C115.216 296.908 115.15 297.392 115.04 297.964H114.688C113.368 297.964 111.696 297.788 110.552 297.59L110.574 299.328C111.828 299.438 113.236 299.526 114.71 299.526H114.732C114.182 301.99 113.302 305.114 112.202 307.27L113.83 307.864C114.028 307.468 114.226 307.182 114.512 306.852C115.942 305.114 118.34 304.256 120.936 304.256C123.488 304.256 124.808 305.488 124.808 307.116C124.808 310.68 119.924 311.56 114.908 310.856L115.392 312.594C121.992 313.32 126.612 311.604 126.612 307.072C126.612 304.52 124.588 302.738 121.112 302.738C118.692 302.738 116.91 303.288 115.018 304.63C115.48 303.376 115.986 301.308 116.382 299.482C119.176 299.372 122.652 299.02 125.204 298.558L125.182 296.864ZM133.102 295.522C133.102 295.984 133.036 296.556 132.97 297.062C132.684 298.844 131.98 302.914 131.98 306.104C131.98 309.052 132.354 311.45 132.794 313.012L134.378 312.88C134.356 312.66 134.334 312.352 134.334 312.132C134.312 311.868 134.356 311.472 134.422 311.164C134.642 310.086 135.412 307.864 135.962 306.346L135.038 305.62C134.686 306.5 134.158 307.842 133.806 308.832C133.652 307.754 133.608 306.874 133.608 305.818C133.608 303.376 134.246 299.152 134.686 297.128C134.752 296.732 134.928 296.05 135.06 295.698L133.102 295.522ZM149.492 294.092C150.218 294.092 150.812 294.686 150.812 295.412C150.812 296.16 150.218 296.732 149.492 296.732C148.744 296.732 148.172 296.16 148.172 295.412C148.172 294.686 148.744 294.092 149.492 294.092ZM143.948 309.206C143.948 310.35 143.486 311.208 141.814 311.208C140.318 311.208 139.35 310.68 139.35 309.58C139.35 308.656 140.362 308.018 141.902 308.018C142.584 308.018 143.244 308.106 143.926 308.304C143.948 308.656 143.948 308.964 143.948 309.206ZM147.886 297.062C148.304 297.458 148.854 297.7 149.492 297.7C150.768 297.7 151.802 296.71 151.802 295.412C151.802 294.136 150.768 293.102 149.492 293.102C148.194 293.102 147.204 294.136 147.204 295.412C147.204 295.786 147.292 296.116 147.424 296.424C144.96 296.732 142.078 296.82 138.8 296.578V298.14C140.538 298.206 142.166 298.228 143.684 298.184V301.726C141.99 301.77 140.208 301.748 138.448 301.616V303.244C140.186 303.332 141.99 303.332 143.706 303.288C143.728 304.432 143.794 305.73 143.86 306.83C143.244 306.742 142.628 306.676 141.946 306.676C139.086 306.676 137.788 308.15 137.788 309.668C137.788 311.736 139.548 312.748 141.968 312.748C144.3 312.748 145.576 311.692 145.576 309.91C145.576 309.624 145.576 309.294 145.554 308.92C146.852 309.536 148.084 310.46 149.162 311.582L150.086 310.042C149.03 309.074 147.512 307.93 145.466 307.248C145.422 305.994 145.334 304.586 145.312 303.244C146.808 303.156 148.194 303.046 149.338 302.914V301.308C148.128 301.44 146.764 301.572 145.29 301.66V298.118C146.214 298.074 147.072 298.008 147.886 297.92V297.062ZM169.182 296.864C166.52 297.458 163.308 297.81 160.69 297.92C160.8 297.436 160.866 296.996 160.932 296.666C161.042 296.094 161.174 295.412 161.328 294.84L159.37 294.73C159.392 295.324 159.37 295.83 159.26 296.534C159.216 296.908 159.15 297.392 159.04 297.964H158.688C157.368 297.964 155.696 297.788 154.552 297.59L154.574 299.328C155.828 299.438 157.236 299.526 158.71 299.526H158.732C158.182 301.99 157.302 305.114 156.202 307.27L157.83 307.864C158.028 307.468 158.226 307.182 158.512 306.852C159.942 305.114 162.34 304.256 164.936 304.256C167.488 304.256 168.808 305.488 168.808 307.116C168.808 310.68 163.924 311.56 158.908 310.856L159.392 312.594C165.992 313.32 170.612 311.604 170.612 307.072C170.612 304.52 168.588 302.738 165.112 302.738C162.692 302.738 160.91 303.288 159.018 304.63C159.48 303.376 159.986 301.308 160.382 299.482C163.176 299.372 166.652 299.02 169.204 298.558L169.182 296.864ZM191.71 297.37C191.358 297.502 190.874 297.568 190.28 297.568H184.296C184.494 297.26 184.67 296.952 184.824 296.644C185.044 296.226 185.44 295.5 185.814 294.928L183.768 294.246C183.636 294.818 183.328 295.61 183.086 295.984C182.14 297.964 179.984 301.154 176.178 303.42L177.696 304.564C180.094 302.958 181.942 301 183.262 299.152H190.698C190.258 301.154 188.916 303.992 187.2 306.016C185.198 308.348 182.448 310.35 178.422 311.538L180.006 312.968C184.142 311.45 186.76 309.426 188.762 306.984C190.72 304.608 192.062 301.616 192.656 299.416C192.788 299.064 193.008 298.558 193.184 298.25L191.71 297.37ZM200.862 295.478C200.906 295.896 200.95 296.666 200.95 297.062V304.388C200.95 305.048 200.884 305.752 200.862 306.082H202.886C202.842 305.686 202.82 304.96 202.82 304.41V297.062C202.82 296.534 202.842 295.896 202.886 295.478H200.862ZM211.048 295.324C211.092 295.852 211.158 296.49 211.158 297.216V300.692C211.158 304.85 210.894 306.632 209.31 308.458C207.946 309.998 206.054 310.878 204.03 311.384L205.46 312.902C207.066 312.352 209.266 311.406 210.696 309.69C212.28 307.798 212.984 306.06 212.984 300.78V297.216C212.984 296.49 213.028 295.852 213.072 295.324H211.048ZM228.626 299.328L227.02 299.878C227.482 300.868 228.494 303.662 228.736 304.652L230.364 304.08C230.078 303.112 229 300.208 228.626 299.328ZM234.698 299.966C234.368 302.782 233.224 305.576 231.662 307.49C229.858 309.756 227.064 311.428 224.512 312.154L225.964 313.65C228.428 312.704 231.112 310.988 233.136 308.414C234.72 306.434 235.666 304.08 236.26 301.66C236.348 301.374 236.436 301.022 236.59 300.56L234.698 299.966ZM223.522 300.428L221.894 301.066C222.334 301.836 223.522 304.872 223.852 306.016L225.524 305.4C225.106 304.256 223.962 301.374 223.522 300.428ZM257.71 297.37C257.358 297.502 256.874 297.568 256.28 297.568H250.296C250.494 297.26 250.67 296.952 250.824 296.644C251.044 296.226 251.44 295.5 251.814 294.928L249.768 294.246C249.636 294.818 249.328 295.61 249.086 295.984C248.14 297.964 245.984 301.154 242.178 303.42L243.696 304.564C246.094 302.958 247.942 301 249.262 299.152H256.698C256.258 301.154 254.916 303.992 253.2 306.016C251.198 308.348 248.448 310.35 244.422 311.538L246.006 312.968C250.142 311.45 252.76 309.426 254.762 306.984C256.72 304.608 258.062 301.616 258.656 299.416C258.788 299.064 259.008 298.558 259.184 298.25L257.71 297.37ZM278.104 300.582L276.982 301.066C277.642 301.968 278.28 303.112 278.786 304.168L279.908 303.64C279.446 302.672 278.61 301.308 278.104 300.582ZM280.502 299.658L279.402 300.164C280.106 301.088 280.744 302.166 281.272 303.222L282.416 302.694C281.888 301.726 281.03 300.384 280.502 299.658ZM263.826 297.524L264.024 299.46C266.378 298.976 272.318 298.404 274.232 298.184C272.23 299.372 270.184 302.144 270.184 305.532C270.184 310.394 274.782 312.55 278.808 312.726L279.446 310.878C275.904 310.746 271.944 309.404 271.944 305.158C271.944 302.584 273.814 299.262 276.916 298.272C278.038 297.942 279.93 297.92 281.184 297.92V296.16C279.732 296.226 277.686 296.336 275.31 296.534C271.306 296.886 267.192 297.282 265.762 297.414C265.344 297.458 264.662 297.502 263.826 297.524ZM302.458 310.746H287.608V298.756H286.024V313.672H287.608V312.308H302.458V313.606H304.042V298.756H302.458V310.746ZM298.784 303.244H295.638V300.384H298.784V303.244ZM298.784 307.446H295.638V304.564H298.784V307.446ZM291.084 304.564H294.208V307.446H291.084V304.564ZM291.084 300.384H294.208V303.244H291.084V300.384ZM285.342 295.038V296.556H294.098V298.998H289.698V308.832H300.214V298.998H295.726V296.556H304.658V295.038H285.342ZM311.17 293.718C310.114 297.106 308.376 300.45 306.484 302.65C306.748 303.046 307.188 303.904 307.342 304.3C308.068 303.442 308.75 302.452 309.41 301.352V313.672H310.972V298.426C311.632 297.04 312.204 295.588 312.688 294.136L311.17 293.718ZM314.932 299.108H318.958V301.594H314.932V299.108ZM320.718 296.248C320.366 296.82 319.948 297.436 319.508 297.898H315.086C315.592 297.348 316.032 296.798 316.45 296.248H320.718ZM324.656 301.594H320.454V299.108H324.656V301.594ZM325.712 303.442C324.942 304.19 323.754 305.18 322.698 305.884C322.28 304.916 321.928 303.86 321.642 302.76H326.196V297.898H321.312C321.884 297.194 322.456 296.38 322.896 295.61L321.884 294.928L321.598 295.016H317.286C317.528 294.642 317.748 294.268 317.946 293.916L316.384 293.63C315.482 295.324 313.854 297.48 311.588 299.086C311.984 299.262 312.512 299.68 312.798 300.01C313.018 299.834 313.238 299.658 313.436 299.482V302.76H317.616C316.032 303.75 313.964 304.608 312.094 305.158C312.38 305.444 312.842 305.994 313.062 306.302C314.382 305.818 315.856 305.158 317.198 304.41C317.572 304.718 317.88 305.026 318.166 305.356C316.67 306.522 314.206 307.688 312.292 308.26C312.6 308.546 312.952 309.052 313.128 309.382C314.976 308.7 317.264 307.49 318.826 306.28C319.112 306.72 319.332 307.16 319.486 307.6C317.726 309.316 314.47 311.12 311.874 311.912C312.204 312.22 312.578 312.726 312.798 313.122C315.13 312.242 317.946 310.614 319.86 309.008C320.08 310.372 319.772 311.516 319.156 311.956C318.76 312.286 318.364 312.33 317.814 312.33C317.396 312.33 316.736 312.308 316.032 312.242C316.296 312.638 316.406 313.254 316.428 313.628C317.044 313.672 317.66 313.694 318.122 313.694C319.002 313.672 319.596 313.54 320.234 313.012C322.016 311.67 321.972 306.808 318.32 303.75C318.826 303.442 319.288 303.112 319.706 302.76H320.234C321.268 307.138 323.182 310.878 326.13 312.726C326.35 312.33 326.856 311.736 327.208 311.428C325.58 310.526 324.26 308.964 323.248 307.05C324.37 306.368 325.8 305.356 326.856 304.41L325.712 303.442ZM349.428 296.38C349.01 295.566 348.152 294.18 347.58 293.388L346.414 293.872C347.03 294.708 347.756 295.962 348.24 296.908L349.428 296.38ZM346.964 297.282C346.502 296.402 345.688 295.038 345.138 294.268L343.972 294.752C344.566 295.588 345.314 296.93 345.754 297.81L346.964 297.282ZM335.304 294.774C335.326 296.248 335.062 297.942 334.754 299.504C333.434 299.614 332.18 299.724 331.454 299.746C330.75 299.768 330.2 299.768 329.518 299.746L329.694 301.66C330.244 301.55 331.124 301.462 331.652 301.396C332.224 301.33 333.258 301.22 334.402 301.11C333.654 304.014 332.048 308.92 329.826 311.89L331.608 312.616C333.896 308.964 335.392 304.058 336.184 300.934C337.13 300.846 337.988 300.78 338.516 300.78C339.924 300.78 340.826 301.132 340.826 303.112C340.826 305.466 340.496 308.304 339.792 309.756C339.33 310.702 338.692 310.878 337.9 310.878C337.284 310.878 336.14 310.702 335.216 310.394L335.502 312.264C336.206 312.418 337.24 312.572 338.076 312.572C339.484 312.572 340.562 312.22 341.266 310.768C342.168 308.942 342.52 305.51 342.52 302.914C342.52 299.966 340.936 299.196 338.978 299.196C338.45 299.196 337.548 299.262 336.536 299.35C336.778 298.184 336.976 296.908 337.108 296.27C337.174 295.83 337.284 295.39 337.372 294.972L335.304 294.774ZM343.246 298.206C344.764 299.988 346.48 303.794 347.14 306.038L348.834 305.202C348.108 303.178 346.216 299.218 344.852 297.458L343.246 298.206ZM355.038 296.578C355.456 297.326 355.896 298.206 356.072 298.8L357.48 298.382C357.326 297.898 356.996 297.216 356.622 296.578H360.714V295.28H354.928C355.17 294.818 355.39 294.356 355.588 293.894L354.07 293.498C353.41 295.192 352.222 296.886 350.902 298.03C351.298 298.228 351.936 298.668 352.244 298.91C352.882 298.272 353.564 297.48 354.158 296.578H355.038ZM358.58 300.23V301.44H353.916V300.23H358.58ZM353.916 303.706V302.474H358.58V303.706H353.916ZM360.076 304.784V299.152H352.398V313.65H353.916V304.784H360.076ZM363.64 306.94V308.348H358.448V306.94H363.64ZM358.448 310.834V309.36H363.64V310.834H358.448ZM365.092 305.906H356.974V312.66H358.448V311.868H365.092V305.906ZM363.42 303.706V302.474H368.326V303.706H363.42ZM368.326 300.23V301.44H363.42V300.23H368.326ZM369.866 299.152H361.924V304.784H368.326V311.802C368.326 312.11 368.216 312.22 367.886 312.242C367.534 312.242 366.39 312.264 365.158 312.198C365.356 312.616 365.598 313.254 365.664 313.65C367.292 313.672 368.37 313.65 369.03 313.408C369.646 313.166 369.866 312.704 369.866 311.802V299.152ZM363.596 295.28C363.86 294.818 364.102 294.356 364.3 293.872L362.738 293.498C362.056 295.214 360.758 296.842 359.306 297.92C359.702 298.096 360.406 298.492 360.714 298.734C361.418 298.162 362.122 297.414 362.738 296.578H364.454C365.048 297.326 365.664 298.25 365.906 298.866L367.358 298.382C367.116 297.876 366.676 297.194 366.192 296.578H370.768V295.28H363.596ZM376.928 304.85V302.496H382.12V304.85H376.928ZM376.928 298.844H382.12V301.198H376.928V298.844ZM389.226 301.198H383.77V298.844H389.226V301.198ZM389.226 304.85H383.77V302.496H389.226V304.85ZM392.79 308.238H383.77V306.236H390.898V297.458H388.588C389.314 296.512 390.128 295.302 390.81 294.202L389.05 293.63C388.522 294.774 387.554 296.402 386.74 297.458H382.824L384.078 296.952C383.792 296.028 383 294.62 382.274 293.564L380.822 294.114C381.526 295.148 382.23 296.534 382.516 297.458H377.786L378.908 296.886C378.468 296.05 377.5 294.752 376.664 293.828L375.278 294.444C376.048 295.346 376.928 296.6 377.346 297.458H375.322V306.236H382.12V308.238H373.254V309.756H382.12V313.694H383.77V309.756H392.79V308.238ZM397.938 295.346C397.938 295.808 397.85 296.38 397.784 296.886C397.52 298.668 396.816 302.408 396.816 305.62C396.816 308.568 397.168 311.076 397.608 312.616L399.192 312.506L399.126 311.736C399.126 311.494 399.17 311.076 399.236 310.768C399.434 309.734 400.226 307.424 400.776 305.884L399.83 305.18C399.478 306.038 398.994 307.314 398.62 308.304C398.488 307.248 398.444 306.368 398.444 305.312C398.444 302.87 399.082 298.976 399.5 296.974C399.588 296.578 399.786 295.874 399.918 295.5L397.938 295.346ZM403.306 305.906C403.108 306.83 402.954 307.688 402.954 308.48C402.954 310.526 404.582 311.736 408.234 311.736C410.5 311.736 412.326 311.56 413.668 311.296L413.646 309.448C411.886 309.844 410.214 310.02 408.256 310.02C405.264 310.02 404.604 309.052 404.604 308.062C404.604 307.468 404.692 306.852 404.89 306.06L403.306 305.906ZM404.054 298.976C406.43 299.218 410.654 299.218 412.986 298.976V297.172C410.808 297.48 406.408 297.568 404.032 297.172L404.054 298.976ZM426.274 306.676H427.726L428.276 298.14L428.32 295.544H425.68L425.746 298.14L426.274 306.676ZM427 312.11C427.968 312.11 428.76 311.45 428.76 310.372C428.76 309.338 427.968 308.656 427 308.656C426.032 308.656 425.24 309.338 425.24 310.372C425.24 311.45 426.032 312.11 427 312.11ZM448.274 306.676H449.726L450.276 298.14L450.32 295.544H447.68L447.746 298.14L448.274 306.676ZM449 312.11C449.968 312.11 450.76 311.45 450.76 310.372C450.76 309.338 449.968 308.656 449 308.656C448.032 308.656 447.24 309.338 447.24 310.372C447.24 311.45 448.032 312.11 449 312.11Z" fill="black"/>
</g>
<path d="M511.23 342.39L467.54 332.54C467.54 332.54 477.85 378.62 511.23 342.39Z" fill="#F9A826"/>
<path d="M528.42 307L488.49 300C488.49 300 513.57 338.15 528.42 307Z" fill="#F9A826"/>
<path d="M478.93 403.931C478.93 403.931 519.39 408.14 513.49 391.29C511.84 386.512 511.41 381.397 512.24 376.411C513.289 370.228 515.735 364.366 519.39 359.271L481.46 365.171C483.733 368.971 485.463 373.071 486.6 377.35C491.12 395.22 478.93 403.931 478.93 403.931Z" fill="#DB8B8B"/>
<path d="M564.9 479.78L569.96 493.27L574.17 521.93C574.739 525.923 574.347 529.993 573.027 533.804C571.707 537.615 569.497 541.055 566.58 543.84C556.47 553.95 542.98 575.02 542.98 575.02L526.98 527.02C526.98 527.02 542.98 524.49 540.47 513.53C537.96 502.57 538.77 482.27 538.77 482.27L564.9 479.78Z" fill="#FC6681"/>
<path opacity="0.05" d="M564.9 479.78L569.96 493.27L574.17 521.93C574.739 525.923 574.347 529.993 573.027 533.804C571.707 537.615 569.497 541.055 566.58 543.84C556.47 553.95 542.98 575.02 542.98 575.02L526.98 527.02C526.98 527.02 542.98 524.49 540.47 513.53C537.96 502.57 538.77 482.27 538.77 482.27L564.9 479.78Z" fill="black"/>
<path d="M456.18 628.96C457.02 640.76 471.35 683.74 471.35 683.74L481.46 719.11C488.705 744.119 492.443 770.013 492.57 796.05C492.57 804.68 493.36 813.58 495.8 820.27C502.54 838.81 489.06 864.1 489.06 864.1C500.86 885.17 521.06 870.84 521.06 870.84V857.36C521.06 857.36 537.06 784.03 532.86 769.71C528.66 755.39 526.96 716.61 526.96 716.61V646.61C540.461 633.157 548.671 615.296 550.09 596.29C550.29 593.53 550.45 590.63 550.56 587.62C551.24 568.62 538.24 546.31 533.16 538.37C531.94 536.45 531.16 535.37 531.16 535.37L456.74 564.89L456.57 564.96V567.84V574.21L456.18 628.96Z" fill="#474463"/>
<path opacity="0.1" d="M481.46 365.161C483.733 368.961 485.463 373.061 486.6 377.341C490.72 378.904 495.111 379.626 499.515 379.464C503.919 379.303 508.245 378.261 512.24 376.401C513.291 370.221 515.736 364.363 519.39 359.271L481.46 365.161Z" fill="black"/>
<path d="M498.32 377.791C516.474 377.791 531.19 363.074 531.19 344.921C531.19 326.767 516.474 312.051 498.32 312.051C480.166 312.051 465.45 326.767 465.45 344.921C465.45 363.074 480.166 377.791 498.32 377.791Z" fill="#DB8B8B"/>
<path opacity="0.1" d="M456.18 574.18L456.54 574.25C491.88 581.52 536.25 544.68 536.25 544.68C535.061 542.675 534.034 540.579 533.18 538.41C531.96 536.49 531.18 535.41 531.18 535.41L456.76 564.93L456.57 567.88L456.18 574.18Z" fill="black"/>
<path d="M465.45 403.08C465.45 403.08 512.65 374.42 527.82 386.22L548.89 413.22C548.89 413.22 562.38 417.43 559.89 444.4L569.96 493.27L539.62 500.86C539.62 500.86 521.92 517.72 536.25 542.16C536.25 542.16 491.58 579.24 456.18 571.66L458.71 532.05C458.71 532.05 466.3 510.14 452.81 489.91C439.32 469.68 451.97 450.3 464.61 442.71C464.61 442.7 470.5 410.67 465.45 403.08Z" fill="#FC6681"/>
<path opacity="0.1" d="M489.05 419.101C489.05 419.101 505.91 417.411 510.12 461.241C514.33 505.071 521.12 515.181 521.12 515.181C521.12 515.181 525.33 537.941 515.22 551.421C505.11 564.901 485.72 593.561 485.72 593.561C485.72 593.561 464.65 599.461 460.44 578.391L486.57 529.511C486.57 529.511 490.78 512.651 480.67 500.851C470.56 489.051 462.92 410.671 489.05 419.101Z" fill="black"/>
<path d="M487.33 416.57C487.33 416.57 504.19 414.88 508.4 458.71C512.61 502.54 519.4 512.65 519.4 512.65C519.4 512.65 523.61 535.41 513.5 548.89C503.39 562.37 484 591.03 484 591.03C484 591.03 462.93 596.93 458.72 575.86L484.85 526.98C484.85 526.98 489.06 510.12 478.95 498.32C468.84 486.52 461.23 408.14 487.33 416.57Z" fill="#FC6681"/>
<path opacity="0.1" d="M473.45 448.17C473.45 448.17 471.77 474.27 479.33 488.63C486.89 502.99 486.92 521.5 479.33 531.63" fill="black"/>
<path opacity="0.1" d="M469.24 416.15C469.24 416.15 475.98 409.41 495.37 408.56C514.76 407.71 523.18 401.82 523.18 401.82" fill="black"/>
<path opacity="0.1" d="M516.12 302.45C521.24 303.08 527.12 304.84 528.94 309.65C529.62 311.42 529.64 313.37 530.11 315.2C532.02 322.56 540.31 325.99 545.42 331.62C549.93 336.62 551.92 343.31 553.42 349.86C557.628 368.643 558.642 388.001 556.42 407.12C554.78 421.12 551.42 434.86 550.48 448.9C549.54 462.94 551.26 477.71 558.93 489.51C562.23 494.58 566.59 499.04 568.93 504.62C564.1 508.54 557.43 509.1 551.2 509.31C543.953 509.557 536.703 509.557 529.45 509.31C525.65 509.18 521.68 508.93 518.4 507.01C515.971 505.457 513.976 503.314 512.6 500.78C508.45 493.78 507.41 485.28 507.6 477.12C507.79 468.96 509.07 460.84 509.22 452.67C509.3 448.22 508.95 443.49 506.39 439.85C504.54 437.22 501.73 435.45 499.33 433.32C490.33 425.32 487.21 412.5 486.91 400.45C486.61 388.4 488.6 376.33 487.58 364.32C487.18 359.62 485.42 353.97 480.8 353.06C479.34 352.77 477.8 353.06 476.4 352.5C472.69 351.07 473.05 345.84 471.99 342.01C470.8 337.71 467.13 334.39 466.1 330.01C463.67 319.81 476.65 307.64 485.16 304.09C493.81 300.47 507 301.33 516.12 302.45Z" fill="black"/>
<path d="M516.96 300.77C522.08 301.4 527.96 303.16 529.78 307.97C530.46 309.74 530.48 311.69 530.95 313.52C532.86 320.88 541.15 324.31 546.26 329.94C550.77 334.94 552.76 341.63 554.26 348.18C558.468 366.963 559.482 386.321 557.26 405.44C555.62 419.44 552.26 433.18 551.32 447.22C550.38 461.26 552.1 476.03 559.77 487.83C563.07 492.9 567.43 497.36 569.77 502.94C564.94 506.86 558.27 507.42 552.04 507.63C544.793 507.877 537.543 507.877 530.29 507.63C526.49 507.5 522.52 507.25 519.24 505.33C516.811 503.777 514.816 501.634 513.44 499.1C509.29 492.1 508.25 483.6 508.44 475.44C508.63 467.28 509.91 459.16 510.06 450.99C510.14 446.54 509.79 441.81 507.23 438.17C505.38 435.54 502.57 433.77 500.17 431.64C491.17 423.64 488.05 410.82 487.75 398.77C487.45 386.72 489.44 374.65 488.42 362.64C488.02 357.94 486.26 352.29 481.64 351.38C480.18 351.09 478.64 351.38 477.24 350.82C473.53 349.39 473.89 344.16 472.83 340.33C471.64 336.03 467.97 332.71 466.94 328.33C464.51 318.13 477.49 305.96 486 302.41C494.65 298.78 507.84 299.64 516.96 300.77Z" fill="#472727"/>
</g>
<defs>
<filter id="filter0_d" x="25" y="39" width="525" height="506" filterUnits="userSpaceOnUse" color-interpolation-filters="sRGB">
<feFlood flood-opacity="0" result="BackgroundImageFix"/>
<feColorMatrix in="SourceAlpha" type="matrix" values="0 0 0 0 0 0 0 0 0 0 0 0 0 0 0 0 0 0 127 0"/>
<feOffset dy="4"/>
<feGaussianBlur stdDeviation="2"/>
<feColorMatrix type="matrix" values="0 0 0 0 0 0 0 0 0 0 0 0 0 0 0 0 0 0 0.25 0"/>
<feBlend mode="normal" in2="BackgroundImageFix" result="effect1_dropShadow"/>
<feBlend mode="normal" in="SourceGraphic" in2="effect1_dropShadow" result="shape"/>
</filter>
<clipPath id="clip0">
<rect width="575" height="575" fill="white"/>
</clipPath>
</defs>
</svg>
