<svg width="965" height="776" viewBox="0 0 965 776" fill="none" xmlns="http://www.w3.org/2000/svg">
<path d="M673.404 228.082C673.589 228.082 673.74 227.932 673.74 227.747C673.74 227.561 673.589 227.411 673.404 227.411C673.219 227.411 673.068 227.561 673.068 227.747C673.068 227.932 673.219 228.082 673.404 228.082Z" fill="#E6E8EC"/>
<path d="M496.479 114.29L252.644 272.483L411.769 559.48C412.513 560.822 413.526 561.995 414.746 562.926C415.966 563.857 417.365 564.525 418.856 564.888L563.035 600.058C565.505 600.656 568.106 600.389 570.403 599.301C572.701 598.214 574.556 596.371 575.659 594.082L647.175 445.502L725.554 340.727L539.556 120.677C534.38 114.557 527.152 110.532 519.223 109.357C511.294 108.181 503.208 109.935 496.479 114.29V114.29Z" fill="#DCDFED"/>
<path opacity="0.1" d="M728.034 341.967L727.344 342.9L681.432 404.28L680.602 405.39L649.656 446.761L588.489 573.858L586.774 577.411L578.14 595.341C577.035 597.634 575.177 599.479 572.876 600.567C570.574 601.655 567.969 601.92 565.496 601.318L421.317 566.128C419.826 565.767 418.426 565.099 417.207 564.168C415.987 563.237 414.973 562.063 414.231 560.72L400.366 535.76L397.876 531.266L297.801 350.695L296.943 349.156L255.115 273.724L260.168 270.442L298.481 245.593L299.367 245.015L380.049 192.669L385.14 189.369L498.94 115.531C505.67 111.167 513.759 109.408 521.693 110.582C529.627 111.756 536.86 115.783 542.037 121.909L626.886 222.329L630.616 226.805L692.202 299.664L692.537 300.065L723.503 336.69L727.4 341.305L728.034 341.967Z" fill="black"/>
<path opacity="0.1" d="M690.15 298.824L682.635 351.039L680.369 366.797L679.073 400.364L678.971 402.984L672.229 578.37C672.164 579.998 671.743 581.591 670.995 583.037C670.247 584.483 669.19 585.748 667.9 586.741C666.61 587.735 665.117 588.433 663.527 588.786C661.938 589.139 660.29 589.139 658.7 588.785L586.028 572.562L585.245 572.384L398.865 530.789L395.443 530.025L292.98 507.143L295.33 349.454L295.404 344.186L296.113 296.456L296.896 243.774L377.578 191.429L382.669 188.128C457.504 195.802 557.03 210.562 624.453 221.089L628.182 225.564L689.721 298.423L690.15 298.824Z" fill="black"/>
<path d="M698.663 236.912L689.815 298.452L681.703 354.807L679.437 370.527L678.141 404.094L671.297 582.101C671.232 583.728 670.811 585.321 670.063 586.767C669.314 588.214 668.258 589.478 666.968 590.472C665.677 591.465 664.184 592.163 662.595 592.516C661.005 592.869 659.357 592.869 657.768 592.516L584.312 576.115L397.932 534.52L292.047 510.874L294.472 347.916L295.18 300.186L296.01 244.353L296.859 186.926C314.369 186.096 343.181 187.97 377.578 191.429C454.595 199.159 559.585 214.796 628.229 225.565C670.262 232.157 698.663 236.912 698.663 236.912Z" fill="#FFD037"/>
<path opacity="0.1" d="M721.116 335.449L681.703 354.778L480.553 453.427L295.18 300.223L257.707 269.201L252.653 272.483L294.481 347.915L292.057 510.873L397.942 534.519L411.779 559.48C412.521 560.822 413.534 561.996 414.754 562.927C415.974 563.858 417.374 564.526 418.865 564.888L563.044 600.058C565.513 600.653 568.112 600.385 570.407 599.298C572.702 598.21 574.556 596.369 575.659 594.081L584.293 576.151L657.749 592.552C659.339 592.906 660.986 592.906 662.576 592.553C664.166 592.2 665.658 591.502 666.949 590.508C668.239 589.515 669.296 588.25 670.044 586.804C670.792 585.357 671.213 583.764 671.278 582.137L678.122 404.131L724.864 341.659L724.994 340.083L721.116 335.449Z" fill="black"/>
<path d="M252.644 272.483L236.019 557.177C235.865 559.812 236.654 562.415 238.245 564.522C239.835 566.628 242.123 568.1 244.7 568.673L686.215 666.717C687.764 667.056 689.366 667.06 690.916 666.728C692.466 666.397 693.927 665.738 695.201 664.796C696.475 663.854 697.533 662.65 698.304 661.265C699.075 659.881 699.541 658.347 699.67 656.768L725.545 340.727L480.553 460.887L252.644 272.483Z" fill="#DCDFED"/>
<path opacity="0.1" d="M239.059 563.694L468.432 422.182C471.828 420.122 475.843 419.33 479.768 419.944C483.692 420.558 487.273 422.54 489.877 425.539L695.176 664.973C695.922 665.831 696.286 665.215 695.176 664.973L239.059 563.694C237.921 564.375 237.753 563.405 239.059 563.694Z" fill="black"/>
<path d="M240.7 563.461L467.705 426.331C471.293 424.164 475.532 423.332 479.674 423.984C483.815 424.636 487.594 426.728 490.344 429.893L693.787 663.863C694.123 664.253 694.329 664.738 694.375 665.251C694.42 665.764 694.303 666.278 694.04 666.72C693.777 667.163 693.381 667.511 692.909 667.717C692.437 667.922 691.912 667.973 691.409 667.863L241.436 567.946C240.957 567.842 240.52 567.597 240.182 567.242C239.844 566.886 239.621 566.438 239.542 565.954C239.462 565.47 239.53 564.974 239.737 564.529C239.943 564.085 240.279 563.712 240.7 563.461V563.461Z" fill="#E3E5F1"/>
</svg>
