<svg width="575" height="575" viewBox="0 0 575 575" fill="none" xmlns="http://www.w3.org/2000/svg">
<path fill-rule="evenodd" clip-rule="evenodd" d="M276.711 19.3976C336.514 14.1154 404.793 17.5172 460.589 39.9493C518.616 63.2784 559.389 125.213 571.102 187.33C582.319 246.812 568.363 319.697 541.582 373.839C518.728 420.041 543.397 478.275 505.778 513.181C463.063 552.816 345.284 563.351 288.064 572.492C226.55 582.319 162.751 562.493 111.528 526.617C59.5383 490.204 13.9919 437.128 4.43013 373.839C-4.63439 313.841 -0.503762 163.287 23.4886 107.668C44.6135 58.6969 65.9587 35.8426 111.528 8.91002C156.401 -17.6114 224.955 23.969 276.711 19.3976Z" fill="#F9A826"/>
<g filter="url(#filter0_d)">
<rect width="445.612" height="437.181" transform="matrix(0.995805 0.0915016 -0.107305 0.994226 88.9116 50)" fill="white"/>
<path d="M146.865 137.977L138.799 137.236L139.501 130.734L138.64 130.655L137.767 138.744L138.628 138.823L138.708 138.083L146.774 138.825L146.698 139.528L147.558 139.608L148.427 131.554L147.567 131.475L146.865 137.977ZM145.309 133.726L143.6 133.569L143.767 132.018L145.476 132.175L145.309 133.726ZM145.063 136.005L143.354 135.847L143.523 134.285L145.231 134.442L145.063 136.005ZM141.049 134.057L142.746 134.213L142.577 135.776L140.88 135.62L141.049 134.057ZM141.294 131.79L142.99 131.946L142.823 133.497L141.126 133.341L141.294 131.79ZM138.488 128.605L138.399 129.428L143.155 129.865L143.012 131.189L140.622 130.97L140.046 136.303L145.758 136.828L146.334 131.494L143.896 131.27L144.039 129.946L148.891 130.392L148.979 129.569L138.488 128.605ZM152.594 129.178C151.822 130.963 150.682 132.689 149.526 133.788C149.646 134.016 149.835 134.503 149.895 134.726C150.34 134.296 150.768 133.794 151.191 133.23L150.47 139.911L151.318 139.989L152.211 131.721C152.65 131.003 153.046 130.244 153.394 129.48L152.594 129.178ZM154.322 132.289L156.509 132.49L156.363 133.838L154.176 133.637L154.322 132.289ZM157.632 131.026C157.407 131.319 157.144 131.632 156.878 131.861L154.476 131.64C154.783 131.367 155.054 131.091 155.314 130.813L157.632 131.026ZM159.458 134.122L157.176 133.912L157.321 132.564L159.603 132.774L159.458 134.122ZM159.923 135.177C159.461 135.544 158.758 136.022 158.143 136.351C157.973 135.805 157.844 135.215 157.753 134.604L160.226 134.831L160.511 132.195L157.858 131.951C158.21 131.598 158.568 131.185 158.852 130.789L158.342 130.369L158.182 130.402L155.84 130.187C155.993 129.996 156.135 129.804 156.263 129.623L155.431 129.39C154.842 130.264 153.831 131.352 152.507 132.11C152.711 132.225 152.974 132.478 153.11 132.671C153.24 132.587 153.369 132.502 153.487 132.417L153.295 134.195L155.566 134.403C154.648 134.861 153.474 135.223 152.426 135.428C152.565 135.597 152.783 135.919 152.885 136.097C153.63 135.9 154.47 135.616 155.242 135.277C155.427 135.463 155.577 135.645 155.713 135.838C154.832 136.396 153.425 136.905 152.352 137.12C152.503 137.291 152.664 137.583 152.741 137.77C153.784 137.493 155.098 136.951 156.017 136.372C156.147 136.625 156.24 136.875 156.298 137.121C155.242 137.964 153.368 138.78 151.911 139.08C152.073 139.263 152.246 139.556 152.342 139.782C153.661 139.421 155.285 138.679 156.419 137.903C156.459 138.654 156.224 139.259 155.864 139.467C155.63 139.626 155.412 139.63 155.113 139.603C154.886 139.582 154.529 139.537 154.15 139.466C154.271 139.694 154.294 140.034 154.284 140.238C154.616 140.292 154.95 140.335 155.201 140.358C155.68 140.39 156.01 140.348 156.388 140.094C157.434 139.455 157.695 136.816 155.89 134.975C156.183 134.833 156.453 134.678 156.701 134.507L156.988 134.534C157.293 136.96 158.114 139.083 159.607 140.233C159.75 140.029 160.059 139.732 160.269 139.583C159.437 139.012 158.812 138.099 158.374 137.011C159.023 136.697 159.859 136.219 160.488 135.759L159.923 135.177ZM162.112 136.812C161.869 137.838 161.526 138.891 161.077 139.585C161.238 139.66 161.568 139.847 161.689 139.954C162.153 139.226 162.539 138.116 162.827 137.01L162.112 136.812ZM165.059 136.119C165.124 136.414 165.167 136.683 165.18 136.901L165.892 136.677C165.821 135.996 165.515 134.92 165.145 134.091L164.498 134.272C164.631 134.61 164.76 134.983 164.864 135.354L163.254 135.29C164.127 134.358 165.158 133.08 165.923 132.029L165.229 131.64C164.85 132.244 164.336 132.98 163.79 133.677C163.647 133.435 163.461 133.153 163.25 132.868C163.739 132.25 164.358 131.319 164.854 130.533L164.12 130.177C163.81 130.811 163.281 131.69 162.825 132.335C162.718 132.205 162.601 132.061 162.493 131.943L161.956 132.448C162.45 133.012 162.973 133.758 163.261 134.327C162.983 134.675 162.708 134.987 162.448 135.265C162.136 135.248 161.836 135.232 161.572 135.22L161.569 136.027C162.111 136.041 162.724 136.061 163.387 136.074L162.85 141.049L163.626 141.12L164.169 136.097L165.059 136.119ZM170.367 138.715L170.515 137.343L171.459 137.43L171.311 138.802L170.367 138.715ZM168.837 138.575L168.985 137.203L169.905 137.287L169.757 138.659L168.837 138.575ZM167.343 138.437L167.491 137.065L168.388 137.148L168.24 138.52L167.343 138.437ZM171.491 133.89L171.353 135.167L167.23 134.788L167.368 133.512L171.491 133.89ZM172.286 136.807L167.04 136.325C167.083 136.04 167.124 135.778 167.152 135.516L172.135 135.974L172.431 133.23L166.647 132.698L166.365 135.311C166.242 136.457 166.024 137.918 165.404 139.187C165.395 138.596 165.26 137.728 165.044 137.045L164.402 137.179C164.603 137.884 164.746 138.801 164.718 139.389L165.371 139.268C165.142 139.717 164.866 140.15 164.523 140.528C164.692 140.64 165 140.921 165.114 141.088C165.924 140.187 166.427 138.992 166.736 137.803L166.351 141.371L167.02 141.432L167.27 139.117L168.166 139.2L167.929 141.395L168.527 141.45L168.764 139.255L169.684 139.339L169.447 141.534L170.056 141.59L170.293 139.395L171.237 139.482L171.079 140.949C171.067 141.057 171.041 141.078 170.969 141.072C170.874 141.063 170.623 141.04 170.337 141.002C170.411 141.213 170.497 141.535 170.498 141.752C170.94 141.792 171.253 141.797 171.492 141.71C171.722 141.587 171.793 141.377 171.83 141.031L172.286 136.807ZM166.361 131.106L166.277 131.881L172.802 132.481L172.885 131.705L166.361 131.106ZM176.107 136.291L178.892 136.547L178.803 137.37L176.018 137.114L176.107 136.291ZM179.113 134.494L176.329 134.239L176.415 133.439L179.199 133.695L179.113 134.494ZM178.96 135.914L176.176 135.658L176.261 134.871L179.045 135.127L178.96 135.914ZM184.112 140.063L184.19 139.335L179.291 138.885L179.371 138.145L183.936 138.564L184.013 137.848L179.651 137.448L179.74 136.624L183.205 136.943L183.274 136.311L179.808 135.992L179.893 135.205L183.323 135.52L183.391 134.888L179.961 134.572L180.048 133.773L183.943 134.131L184.019 133.427L180.1 133.067C180.368 132.706 180.668 132.276 180.955 131.856L179.978 131.622C179.803 132.015 179.492 132.553 179.204 132.985L176.897 132.773C177.23 132.369 177.526 131.975 177.785 131.589L176.885 131.326C176.243 132.351 175.124 133.658 173.686 134.574C173.864 134.711 174.135 135.001 174.256 135.217C174.698 134.92 175.109 134.584 175.495 134.246L175.117 137.754L178.498 138.065L178.419 138.804L173.591 138.361L173.512 139.089L177.599 139.464C176.369 140.243 174.551 140.871 173.004 141.114C173.177 141.299 173.404 141.657 173.511 141.896C175.08 141.558 176.972 140.804 178.303 139.878L178.027 142.431L178.899 142.511L179.178 139.934C180.286 141.073 181.994 142.133 183.486 142.728C183.642 142.514 183.928 142.214 184.138 142.053C182.673 141.545 181.02 140.646 179.989 139.684L184.112 140.063ZM191.813 141.168C191.862 140.594 191.959 139.591 192.02 138.91C192.961 138.574 193.847 138.306 194.545 138.105C194.868 138.015 195.316 137.887 195.624 137.831L195.338 136.901C194.986 137.037 194.684 137.154 194.308 137.276C193.656 137.506 192.908 137.726 192.054 138.033C191.951 137.313 191.37 136.886 190.605 136.816C190.079 136.767 189.38 136.872 188.92 137.107C189.41 136.597 189.851 135.975 190.179 135.391C191.475 135.462 192.945 135.488 194.135 135.417L194.242 134.535C193.098 134.623 191.796 134.612 190.583 134.56C190.808 134.039 190.968 133.56 191.088 133.233L190.117 133.06C190.049 133.463 189.884 133.99 189.66 134.5C189.384 134.486 189.133 134.463 188.882 134.44C188.344 134.391 187.525 134.267 186.899 134.138L186.803 135.032C187.443 135.139 188.241 135.237 188.743 135.283L189.233 135.328C188.69 136.218 187.782 137.363 186.119 138.681L186.866 139.364C187.324 138.924 187.706 138.513 188.076 138.222C188.678 137.783 189.436 137.467 190.213 137.539C190.727 137.586 191.131 137.864 191.198 138.364C189.747 138.954 188.241 139.707 188.091 141.103C187.935 142.546 189.258 143.03 190.955 143.186C191.983 143.28 193.306 143.317 194.214 143.292L194.342 142.328C193.283 142.411 192.005 142.402 191.085 142.318C189.866 142.206 188.96 141.99 189.061 141.059C189.144 140.284 189.975 139.746 191.139 139.25C191.072 139.871 190.977 140.633 190.892 141.083L191.813 141.168ZM202.551 140.962C201.894 140.901 201.391 140.421 201.471 139.682C201.553 138.918 202.19 138.495 202.8 138.551C203.266 138.593 203.637 138.844 203.773 139.375C203.759 140.506 203.244 141.025 202.551 140.962ZM204.841 136.858C206.573 137.018 207.646 137.14 208.312 137.238L208.42 136.344C207.847 136.291 206.39 136.145 204.956 136.014L204.777 135.997C204.81 135.687 204.852 135.414 204.871 135.235L205.011 134.5L203.923 134.4C203.932 134.546 203.93 134.895 203.915 135.147C203.909 135.315 203.891 135.59 203.855 135.924C202.096 135.787 199.866 135.654 198.549 135.557L198.472 136.49C199.966 136.519 201.982 136.62 203.776 136.773C203.744 137.179 203.699 137.597 203.662 137.943C203.432 137.837 203.174 137.766 202.887 137.739C201.764 137.636 200.699 138.442 200.573 139.611C200.435 140.888 201.315 141.679 202.319 141.772C202.713 141.808 203.058 141.743 203.367 141.567C202.764 142.572 201.595 143.115 200.003 143.33L200.741 144.205C203.578 143.635 204.547 141.928 204.719 140.329C204.783 139.745 204.708 139.208 204.501 138.779C204.547 138.241 204.613 137.512 204.685 136.844L204.841 136.858ZM214.469 144.479C213.585 144.397 212.94 144.001 213.003 143.416C213.047 143.01 213.488 142.726 214.026 142.775C214.922 142.857 215.414 143.553 215.421 144.494C215.129 144.515 214.804 144.509 214.469 144.479ZM217.833 136.124C217.698 136.148 217.528 136.157 217.177 136.161C216.549 136.163 213.732 135.989 213.123 135.933C212.884 135.911 212.549 135.88 212.29 135.82L212.207 136.812C212.463 136.788 212.739 136.801 213.016 136.814C213.629 136.835 215.971 136.941 216.595 136.975C215.952 137.446 214.349 138.551 213.632 139.04C212.877 139.549 211.223 140.674 210.156 141.395L210.773 142.163C212.443 140.774 213.608 140.05 215.555 140.229C217.049 140.366 218.129 141.321 218.004 142.478C217.9 143.444 217.289 144.075 216.318 144.347C216.281 143.235 215.587 142.172 214.105 142.035C213.006 141.934 212.197 142.607 212.11 143.418C212.004 144.397 212.919 145.204 214.532 145.352C217.029 145.581 218.753 144.487 218.959 142.578C219.131 140.979 217.838 139.655 215.866 139.474C215.34 139.426 214.795 139.448 214.238 139.577C215.229 138.897 216.968 137.648 217.602 137.26C217.795 137.145 218.077 136.99 218.308 136.867L217.833 136.124ZM232.178 140.19C231.662 139.709 230.394 138.821 229.575 138.36L229.029 139.057C229.779 139.487 230.979 140.333 231.555 140.928L232.178 140.19ZM228.069 138.005C227.451 138.141 226.814 138.227 226.182 138.265C226.447 137.603 226.679 136.901 226.845 136.483L225.792 136.289C225.7 136.92 225.451 137.656 225.201 138.296C224.743 138.29 224.299 138.273 223.881 138.234C223.367 138.187 222.867 138.117 222.432 138.017L222.407 138.918C222.846 138.983 223.335 139.04 223.777 139.08C224.124 139.112 224.472 139.132 224.821 139.14C224.134 140.475 222.926 142.268 221.811 143.322L222.691 143.885C223.773 142.695 225.046 140.739 225.812 139.123C226.599 139.099 227.357 139.012 227.997 138.89L228.069 138.005ZM227.978 144.66C227.915 145.244 227.534 145.751 226.567 145.662C225.646 145.578 225.244 145.167 225.303 144.619C225.361 144.082 225.977 143.741 226.85 143.821C227.268 143.859 227.668 143.956 228.027 144.098C228.015 144.314 227.995 144.504 227.978 144.66ZM228.28 140.301C228.215 141.127 228.149 142.29 228.081 143.259C227.742 143.156 227.364 143.085 226.969 143.049C225.631 142.926 224.527 143.535 224.41 144.621C224.284 145.79 225.29 146.425 226.592 146.544C228.05 146.678 228.755 145.96 228.857 145.017C228.871 144.886 228.889 144.719 228.896 144.539C229.621 144.979 230.198 145.562 230.651 146.062L231.252 145.298C230.699 144.717 229.938 144.056 228.962 143.593C229.015 142.875 229.051 142.095 229.086 141.665C229.121 141.222 229.147 140.875 229.236 140.389L228.28 140.301ZM237.047 138.456C237.928 138.79 240.441 139.551 241.547 139.81L241.875 138.9C240.833 138.708 238.377 137.988 237.396 137.573L237.047 138.456ZM236.901 139.696L235.9 139.471C235.694 140.706 235.139 143.161 234.785 144.213L235.658 144.51C235.762 144.327 235.891 144.134 236.08 143.946C237.024 143.033 238.328 142.574 239.906 142.719C241.113 142.83 241.914 143.566 241.812 144.509C241.639 146.12 239.694 147.025 236.015 146.229L236.196 147.234C240.554 148.008 242.584 146.749 242.814 144.625C242.963 143.241 241.873 142.045 240.057 141.878C238.647 141.748 237.322 142.06 236.08 142.946C236.27 142.192 236.658 140.493 236.901 139.696ZM249.51 143.517C249.434 144.221 249.935 144.834 250.641 144.898C251.346 144.963 251.968 144.454 252.044 143.75C252.12 143.046 251.619 142.434 250.913 142.369C250.208 142.304 249.586 142.814 249.51 143.517ZM261.46 144.615C261.384 145.319 261.885 145.932 262.59 145.996C263.295 146.061 263.917 145.552 263.993 144.848C264.069 144.144 263.568 143.532 262.863 143.467C262.158 143.402 261.536 143.912 261.46 144.615ZM273.41 145.713C273.334 146.417 273.835 147.03 274.54 147.095C275.245 147.159 275.867 146.65 275.943 145.946C276.019 145.242 275.518 144.63 274.813 144.565C274.108 144.5 273.486 145.01 273.41 145.713ZM285.359 146.811C285.283 147.515 285.784 148.128 286.489 148.193C287.195 148.257 287.817 147.748 287.893 147.044C287.969 146.34 287.468 145.728 286.762 145.663C286.057 145.598 285.435 146.108 285.359 146.811Z" fill="black"/>
<path d="M181.908 238.524C180.36 245.328 177.237 250.408 172.538 253.765C167.871 257.095 161.989 258.434 154.892 257.782C147.198 257.075 141.322 253.754 137.264 247.818C133.236 241.885 131.72 234.303 132.716 225.073L133.391 218.82C134.043 212.776 135.691 207.56 138.333 203.172C141.005 198.786 144.456 195.555 148.685 193.478C152.919 191.371 157.645 190.557 162.863 191.037C169.782 191.673 175.12 194.118 178.878 198.372C182.638 202.597 184.494 208.15 184.444 215.031L175.81 214.238C175.624 208.989 174.403 205.088 172.149 202.535C169.924 199.985 166.575 198.505 162.102 198.094C156.615 197.589 152.087 199.218 148.518 202.98C144.98 206.744 142.807 212.363 142.001 219.837L141.321 226.134C140.559 233.191 141.43 238.939 143.932 243.379C146.435 247.819 150.34 250.282 155.649 250.77C160.42 251.209 164.189 250.472 166.955 248.562C169.755 246.624 171.861 243.013 173.274 237.731L181.908 238.524ZM199.14 260.946L190.864 260.186L198.268 191.584L206.544 192.344L199.14 260.946ZM221.417 262.993L213.142 262.233L218.357 213.908L226.633 214.668L221.417 262.993ZM219.07 201.028C219.214 199.688 219.739 198.594 220.644 197.745C221.578 196.898 222.851 196.549 224.461 196.697C226.072 196.845 227.245 197.419 227.98 198.419C228.716 199.418 229.011 200.588 228.866 201.928C228.722 203.268 228.184 204.346 227.252 205.163C226.321 205.979 225.05 206.313 223.439 206.165C221.829 206.018 220.655 205.459 219.916 204.489C219.207 203.521 218.925 202.368 219.07 201.028ZM278.139 244.344C277.346 251.699 275.021 257.469 271.166 261.655C267.311 265.842 262.505 267.671 256.75 267.142C250.875 266.602 246.453 264.316 243.485 260.285L240.974 283.554L232.698 282.793L239.919 215.889L247.479 216.584L247.303 221.98C251.123 218.121 256.03 216.467 262.024 217.018C267.839 217.552 272.196 220.163 275.093 224.849C278.021 229.539 279.063 235.784 278.221 243.585L278.139 244.344ZM269.965 242.646C270.553 237.197 269.854 232.788 267.869 229.418C265.883 226.048 262.863 224.177 258.807 223.804C253.797 223.344 249.8 225.217 246.816 229.423L244.324 252.513C246.323 257.147 249.873 259.699 254.973 260.167C258.939 260.532 262.254 259.258 264.917 256.345C267.614 253.405 269.297 248.839 269.965 242.646ZM329.672 249.079C328.875 256.464 326.534 262.248 322.649 266.431C318.768 270.585 313.964 272.399 308.238 271.873C302.124 271.311 297.631 268.718 294.756 264.094L293.751 269.639L286.147 268.941L293.551 200.339L301.826 201.1L299.064 226.691C302.851 222.859 307.682 221.213 313.557 221.753C319.432 222.293 323.8 224.935 326.661 229.678C329.552 234.424 330.582 240.653 329.749 248.365L329.672 249.079ZM321.498 247.381C322.105 241.754 321.486 237.306 319.64 234.04C317.794 230.773 314.828 228.952 310.742 228.576C305.285 228.075 301.09 230.245 298.158 235.088L295.902 255.99C297.891 261.284 301.569 264.178 306.937 264.672C310.903 265.036 314.155 263.786 316.693 260.922C319.231 258.058 320.833 253.544 321.498 247.381ZM346.581 274.494L338.306 273.733L343.521 225.409L351.797 226.169L346.581 274.494ZM344.234 212.529C344.378 211.189 344.903 210.095 345.808 209.245C346.743 208.399 348.015 208.05 349.626 208.198C351.236 208.346 352.409 208.92 353.144 209.92C353.88 210.919 354.175 212.089 354.03 213.429C353.886 214.769 353.348 215.847 352.416 216.664C351.485 217.48 350.214 217.814 348.604 217.666C346.993 217.518 345.819 216.959 345.08 215.99C344.371 215.022 344.089 213.869 344.234 212.529ZM387.678 236.954C386.448 236.63 385.103 236.401 383.641 236.267C378.214 235.768 374.282 237.737 371.845 242.174L368.143 276.475L359.867 275.715L365.083 227.39L373.135 228.13L372.667 233.725C375.846 229.657 379.926 227.852 384.907 228.309C386.517 228.457 387.717 228.778 388.507 229.272L387.678 236.954ZM390.656 253.736C391.456 246.322 393.858 240.528 397.862 236.356C401.87 232.153 406.722 230.314 412.418 230.837C418.084 231.358 422.363 233.706 425.256 237.881L427.975 212.691L436.25 213.451L428.846 282.053L421.242 281.354L421.398 276.136C417.651 279.882 412.825 281.483 406.92 280.94C401.313 280.425 396.983 277.712 393.929 272.8C390.905 267.892 389.791 261.745 390.588 254.361L390.656 253.736ZM398.83 255.434C398.239 260.913 398.909 265.304 400.842 268.609C402.774 271.914 405.738 273.75 409.734 274.117C414.983 274.6 419.069 272.6 421.993 268.117L424.388 245.92C422.405 241.137 418.848 238.51 413.719 238.038C409.663 237.666 406.333 238.938 403.729 241.856C401.125 244.775 399.492 249.3 398.83 255.434Z" fill="black"/>
<path d="M121.235 310.54C121.186 311 121.058 311.562 120.938 312.06C120.462 313.805 119.325 317.787 118.982 320.959C118.666 323.89 118.781 326.308 119.052 327.901L120.643 327.915C120.645 327.694 120.656 327.386 120.68 327.167C120.686 326.903 120.772 326.513 120.871 326.213C121.206 325.161 122.211 323.023 122.922 321.564L122.079 320.757C121.634 321.6 120.965 322.886 120.508 323.838C120.47 322.752 120.521 321.873 120.634 320.823C120.896 318.395 121.985 314.254 122.64 312.282C122.748 311.894 122.997 311.233 123.166 310.895L121.235 310.54ZM137.71 310.618C138.433 310.685 138.961 311.33 138.883 312.052C138.802 312.795 138.149 313.31 137.427 313.243C136.682 313.175 136.173 312.554 136.254 311.81C136.332 311.088 136.965 310.55 137.71 310.618ZM130.567 325.138C130.444 326.275 129.892 327.086 128.227 326.933C126.738 326.796 125.83 326.183 125.948 325.089C126.048 324.17 127.124 323.629 128.657 323.77C129.336 323.832 129.984 323.98 130.642 324.239C130.626 324.591 130.593 324.897 130.567 325.138ZM135.792 313.424C136.166 313.856 136.687 314.147 137.323 314.206C138.593 314.322 139.729 313.433 139.868 312.142C140.005 310.874 139.087 309.751 137.816 309.634C136.523 309.515 135.427 310.453 135.29 311.721C135.25 312.093 135.302 312.429 135.4 312.748C132.914 312.829 130.034 312.652 126.796 312.112L126.628 313.665C128.352 313.889 129.971 314.06 131.487 314.155L131.107 317.677C129.415 317.566 127.643 317.381 125.905 317.088L125.73 318.707C127.451 318.954 129.248 319.119 130.961 319.232C130.86 320.371 130.787 321.668 130.735 322.768C130.131 322.624 129.524 322.502 128.845 322.439C125.997 322.178 124.546 323.524 124.384 325.034C124.162 327.09 125.806 328.257 128.215 328.478C130.538 328.692 131.922 327.758 132.113 325.987C132.144 325.702 132.179 325.374 132.197 325C133.424 325.732 134.551 326.763 135.504 327.977L136.59 326.531C135.642 325.472 134.253 324.195 132.289 323.33C132.38 322.079 132.443 320.671 132.565 319.335C134.064 319.385 135.456 319.402 136.61 319.375L136.782 317.779C135.563 317.799 134.191 317.806 132.713 317.758L133.093 314.237C134.018 314.278 134.88 314.29 135.7 314.277L135.792 313.424ZM157.02 315.176C154.305 315.523 151.069 315.579 148.45 315.449C148.612 314.978 148.724 314.546 148.826 314.224C148.997 313.666 149.201 313 149.416 312.445L147.478 312.157C147.436 312.749 147.36 313.25 147.175 313.94C147.091 314.308 146.973 314.783 146.802 315.342L146.452 315.31C145.137 315.189 143.491 314.861 142.373 314.559L142.209 316.289C143.446 316.513 144.838 316.73 146.306 316.865L146.328 316.867C145.516 319.266 144.304 322.291 142.978 324.334L144.535 325.074C144.775 324.698 145.003 324.432 145.323 324.13C146.933 322.533 149.413 321.899 151.998 322.137C154.54 322.37 155.722 323.716 155.547 325.335C155.165 328.878 150.207 329.306 145.287 328.147L145.583 329.919C152.077 331.245 156.862 329.962 157.348 325.456C157.622 322.919 155.798 320.962 152.337 320.644C149.927 320.422 148.093 320.806 146.065 321.967C146.66 320.763 147.385 318.753 147.976 316.974C150.77 317.12 154.269 317.088 156.86 316.862L157.02 315.176ZM165.051 314.567C165.001 315.026 164.874 315.589 164.754 316.086C164.278 317.831 163.14 321.813 162.798 324.985C162.481 327.916 162.596 330.334 162.867 331.927L164.459 331.941C164.46 331.72 164.471 331.412 164.495 331.193C164.501 330.929 164.588 330.539 164.687 330.239C165.021 329.187 166.026 327.049 166.737 325.59L165.895 324.783C165.45 325.626 164.78 326.912 164.323 327.864C164.286 326.778 164.336 325.899 164.45 324.849C164.712 322.421 165.8 318.28 166.456 316.308C166.564 315.921 166.812 315.259 166.981 314.921L165.051 314.567ZM181.525 314.645C182.248 314.711 182.776 315.356 182.698 316.078C182.618 316.821 181.965 317.336 181.242 317.269C180.497 317.201 179.989 316.58 180.069 315.836C180.147 315.114 180.78 314.576 181.525 314.645ZM174.383 329.164C174.26 330.301 173.708 331.112 172.043 330.959C170.553 330.822 169.646 330.209 169.764 329.115C169.863 328.196 170.939 327.655 172.473 327.796C173.152 327.858 173.8 328.006 174.458 328.265C174.442 328.617 174.409 328.923 174.383 329.164ZM179.607 317.45C179.981 317.882 180.503 318.173 181.138 318.232C182.409 318.348 183.545 317.459 183.684 316.168C183.821 314.9 182.902 313.777 181.631 313.66C180.339 313.541 179.242 314.479 179.105 315.748C179.065 316.119 179.117 316.456 179.216 316.774C176.729 316.855 173.85 316.678 170.611 316.138L170.444 317.691C172.167 317.915 173.786 318.086 175.302 318.181L174.922 321.703C173.231 321.592 171.459 321.407 169.72 321.115L169.545 322.733C171.267 322.98 173.063 323.145 174.777 323.258C174.676 324.397 174.602 325.694 174.55 326.794C173.946 326.65 173.34 326.528 172.661 326.465C169.813 326.204 168.362 327.55 168.199 329.06C167.977 331.116 169.621 332.283 172.031 332.504C174.353 332.718 175.737 331.785 175.928 330.013C175.959 329.729 175.994 329.4 176.013 329.027C177.239 329.758 178.367 330.789 179.32 332.003L180.405 330.557C179.457 329.498 178.069 328.221 176.104 327.356C176.195 326.105 176.259 324.697 176.381 323.361C177.88 323.411 179.272 323.428 180.425 323.401L180.598 321.805C179.378 321.825 178.006 321.832 176.529 321.784L176.909 318.263C177.834 318.304 178.695 318.316 179.515 318.303L179.607 317.45ZM200.835 319.202C198.121 319.549 194.884 319.605 192.265 319.475C192.427 319.004 192.54 318.572 192.641 318.25C192.812 317.692 193.017 317.026 193.231 316.471L191.293 316.183C191.251 316.775 191.175 317.276 190.99 317.966C190.906 318.334 190.789 318.809 190.618 319.368L190.267 319.336C188.953 319.215 187.307 318.887 186.189 318.585L186.024 320.315C187.261 320.539 188.654 320.756 190.121 320.891L190.143 320.893C189.331 323.292 188.12 326.317 186.793 328.36L188.35 329.1C188.59 328.724 188.818 328.458 189.138 328.156C190.749 326.559 193.229 325.925 195.814 326.163C198.355 326.396 199.537 327.742 199.363 329.361C198.98 332.904 194.022 333.332 189.103 332.173L189.398 333.946C195.893 335.271 200.677 333.988 201.164 329.482C201.438 326.945 199.613 324.988 196.152 324.67C193.742 324.448 191.909 324.832 189.88 325.993C190.475 324.789 191.201 322.779 191.791 321C194.585 321.146 198.084 321.114 200.675 320.888L200.835 319.202ZM223.214 321.767C222.85 321.866 222.361 321.887 221.769 321.833L215.81 321.285C216.04 320.997 216.249 320.707 216.435 320.415C216.699 320.019 217.171 319.334 217.605 318.799L215.641 317.934C215.448 318.491 215.056 319.25 214.775 319.599C213.621 321.481 211.131 324.456 207.098 326.36L208.487 327.637C211.047 326.259 213.098 324.482 214.611 322.765L222.015 323.446C221.362 325.396 219.721 328.095 217.796 329.95C215.552 332.085 212.598 333.824 208.462 334.637L209.886 336.204C214.167 335.073 216.991 333.3 219.247 331.055C221.452 328.872 223.109 326.02 223.937 323.887C224.106 323.549 224.379 323.067 224.588 322.776L223.214 321.767ZM232.531 320.723C232.53 321.143 232.491 321.912 232.449 322.306L231.663 329.59C231.592 330.246 231.45 330.94 231.393 331.266L233.409 331.451C233.407 331.053 233.463 330.329 233.522 329.783L234.311 322.477C234.367 321.952 234.458 321.32 234.546 320.908L232.531 320.723ZM242.691 321.502C242.678 322.031 242.675 322.671 242.597 323.393L242.224 326.849C241.778 330.983 241.324 332.73 239.551 334.401C238.027 335.807 236.049 336.509 233.979 336.827L235.24 338.467C236.898 338.067 239.191 337.328 240.799 335.753C242.579 334.017 243.467 332.353 244.033 327.104L244.416 323.56C244.494 322.838 244.606 322.208 244.706 321.687L242.691 321.502ZM259.765 327.091L258.107 327.491C258.461 328.518 259.169 331.388 259.304 332.394L260.986 331.975C260.805 330.986 260.043 328 259.765 327.091ZM265.743 328.281C265.113 331.051 263.674 333.724 261.913 335.484C259.873 337.572 256.912 338.978 254.292 339.467L255.578 341.087C258.133 340.372 260.99 338.911 263.281 336.537C265.071 334.714 266.266 332.46 267.117 330.108C267.235 329.832 267.361 329.49 267.564 329.045L265.743 328.281ZM254.565 327.718L252.875 328.203C253.231 329.009 254.088 332.136 254.294 333.304L256.025 332.844C255.731 331.669 254.901 328.699 254.565 327.718ZM288.937 327.806C288.573 327.905 288.084 327.926 287.492 327.872L281.533 327.324C281.764 327.036 281.972 326.746 282.158 326.454C282.422 326.058 282.894 325.373 283.328 324.838L281.364 323.973C281.171 324.53 280.779 325.289 280.498 325.639C279.344 327.521 276.855 330.495 272.821 332.4L274.21 333.676C276.771 332.299 278.821 330.521 280.334 328.804L287.739 329.485C287.086 331.435 285.445 334.134 283.519 335.989C281.275 338.124 278.322 339.863 274.185 340.676L275.609 342.243C279.89 341.112 282.715 339.339 284.97 337.094C287.175 334.911 288.832 332.059 289.66 329.926C289.829 329.589 290.103 329.106 290.311 328.815L288.937 327.806ZM308.901 332.865L307.732 333.244C308.292 334.201 308.805 335.397 309.196 336.493L310.37 336.071C310.013 335.066 309.327 333.633 308.901 332.865ZM311.388 332.166L310.239 332.568C310.841 333.552 311.36 334.682 311.773 335.78L312.969 335.36C312.547 334.349 311.836 332.936 311.388 332.166ZM295.011 328.518L295.001 330.461C297.397 330.196 303.373 330.17 305.303 330.127C303.182 331.125 300.847 333.694 300.483 337.062C299.962 341.896 304.309 344.46 308.299 345.004L309.133 343.225C305.62 342.769 301.82 341.073 302.276 336.851C302.552 334.292 304.771 331.16 307.966 330.46C309.119 330.234 311.005 330.386 312.254 330.5L312.443 328.751C310.99 328.683 308.941 328.606 306.553 328.585C302.528 328.569 298.389 328.586 296.951 328.586C296.53 328.592 295.846 328.573 295.011 328.518ZM332.062 345.199L317.275 343.84L318.561 331.919L316.984 331.774L315.383 346.604L316.961 346.749L317.107 345.393L331.895 346.752L331.756 348.042L333.333 348.187L334.926 333.423L333.349 333.278L332.062 345.199ZM329.209 337.404L326.076 337.116L326.383 334.273L329.516 334.561L329.209 337.404ZM328.758 341.582L325.625 341.294L325.934 338.429L329.067 338.717L328.758 341.582ZM321.4 338.012L324.51 338.298L324.201 341.163L321.09 340.877L321.4 338.012ZM321.848 333.856L324.959 334.142L324.652 336.985L321.541 336.7L321.848 333.856ZM316.704 328.016L316.541 329.525L325.26 330.326L324.998 332.754L320.617 332.351L319.561 342.128L330.033 343.091L331.088 333.313L326.619 332.903L326.881 330.475L335.776 331.292L335.939 329.783L316.704 328.016ZM342.565 329.066C341.15 332.338 339.06 335.504 336.94 337.518C337.161 337.936 337.507 338.829 337.618 339.237C338.433 338.45 339.218 337.529 339.993 336.495L338.671 348.744L340.227 348.887L341.863 333.729C342.669 332.412 343.394 331.02 344.032 329.621L342.565 329.066ZM345.733 334.77L349.742 335.138L349.475 337.61L345.466 337.241L345.733 334.77ZM351.802 332.456C351.39 332.992 350.907 333.566 350.42 333.985L346.016 333.581C346.579 333.08 347.076 332.574 347.551 332.065L351.802 332.456ZM355.149 338.131L350.965 337.746L351.232 335.275L355.416 335.659L355.149 338.131ZM356.003 340.065C355.156 340.738 353.866 341.614 352.739 342.217C352.427 341.216 352.19 340.134 352.023 339.014L356.558 339.431L357.08 334.597L352.216 334.15C352.861 333.503 353.518 332.746 354.039 332.02L353.104 331.25L352.81 331.311L348.516 330.917C348.797 330.567 349.056 330.215 349.291 329.883L347.767 329.456C346.687 331.058 344.834 333.052 342.405 334.442C342.781 334.653 343.262 335.117 343.511 335.471C343.749 335.316 343.987 335.161 344.203 335.005L343.851 338.264L348.014 338.646C346.33 339.485 344.179 340.149 342.258 340.525C342.512 340.835 342.913 341.425 343.099 341.751C344.465 341.391 346.004 340.869 347.42 340.248C347.76 340.589 348.034 340.923 348.283 341.277C346.668 342.3 344.089 343.234 342.122 343.627C342.398 343.94 342.694 344.475 342.834 344.819C344.747 344.31 347.156 343.317 348.841 342.256C349.079 342.72 349.25 343.178 349.357 343.629C347.42 345.174 343.984 346.67 341.314 347.22C341.609 347.556 341.928 348.094 342.104 348.507C344.521 347.846 347.5 346.485 349.578 345.063C349.651 346.44 349.221 347.549 348.561 347.93C348.131 348.222 347.732 348.229 347.184 348.179C346.768 348.141 346.113 348.058 345.419 347.928C345.639 348.346 345.683 348.969 345.665 349.343C346.273 349.443 346.884 349.521 347.344 349.563C348.223 349.622 348.829 349.545 349.521 349.078C351.439 347.907 351.917 343.069 348.609 339.695C349.146 339.435 349.641 339.149 350.095 338.837L350.621 338.886C351.181 343.333 352.685 347.227 355.423 349.334C355.684 348.96 356.252 348.416 356.635 348.142C355.111 347.096 353.964 345.422 353.162 343.427C354.352 342.851 355.885 341.976 357.038 341.132L356.003 340.065ZM380.377 335.214C380.048 334.366 379.342 332.91 378.858 332.07L377.645 332.444C378.168 333.332 378.757 334.645 379.137 335.63L380.377 335.214ZM377.826 335.885C377.461 334.968 376.797 333.537 376.332 332.721L375.119 333.096C375.62 333.981 376.221 335.384 376.565 336.299L377.826 335.885ZM366.485 332.325C366.348 333.792 365.904 335.452 365.429 336.977C364.103 336.966 362.842 336.96 362.117 336.916C361.414 336.873 360.866 336.823 360.189 336.739L360.159 338.658C360.719 338.599 361.604 338.592 362.137 338.574C362.714 338.561 363.755 338.546 364.906 338.542C363.85 341.36 361.724 346.091 359.193 348.841L360.889 349.725C363.56 346.304 365.576 341.563 366.7 338.53C367.651 338.529 368.513 338.542 369.039 338.59C370.441 338.719 371.301 339.151 371.089 341.12C370.836 343.46 370.203 346.252 369.346 347.631C368.784 348.529 368.13 348.646 367.342 348.573C366.728 348.517 365.608 348.237 364.721 347.846L364.805 349.732C365.489 349.949 366.503 350.197 367.335 350.274C368.737 350.402 369.848 350.151 370.705 348.772C371.799 347.039 372.518 343.659 372.797 341.078C373.113 338.147 371.618 337.236 369.669 337.057C369.143 337.009 368.238 336.992 367.22 336.987C367.586 335.85 367.921 334.599 368.12 333.977C368.233 333.546 368.39 333.118 368.523 332.711L366.485 332.325ZM374.025 336.464C375.345 338.374 376.646 342.315 377.062 344.607L378.839 343.93C378.333 341.852 376.874 337.741 375.704 335.867L374.025 336.464ZM385.942 335.924C386.278 336.706 386.622 337.621 386.733 338.228L388.18 337.941C388.079 337.446 387.823 336.737 387.52 336.069L391.594 336.443L391.734 335.153L385.972 334.623C386.262 334.186 386.531 333.747 386.778 333.306L385.309 332.773C384.47 334.397 383.105 335.973 381.668 336.989C382.041 337.222 382.629 337.718 382.91 337.987C383.613 337.411 384.378 336.686 385.066 335.843L385.942 335.924ZM389.077 339.879L388.948 341.082L384.303 340.655L384.433 339.452L389.077 339.879ZM384.06 342.908L384.192 341.683L388.837 342.11L388.704 343.335L384.06 342.908ZM390.078 344.544L390.683 338.944L383.037 338.242L381.481 352.656L382.993 352.795L383.944 343.98L390.078 344.544ZM393.396 347.013L393.245 348.413L388.075 347.938L388.226 346.538L393.396 347.013ZM387.808 350.41L387.966 348.944L393.136 349.419L392.978 350.885L387.808 350.41ZM394.953 346.118L386.869 345.375L386.144 352.09L387.612 352.225L387.697 351.438L394.313 352.046L394.953 346.118ZM393.524 343.778L393.656 342.553L398.542 343.002L398.41 344.227L393.524 343.778ZM398.783 340.771L398.653 341.974L393.767 341.525L393.897 340.322L398.783 340.771ZM400.432 339.84L392.523 339.113L391.919 344.713L398.294 345.298L397.541 352.276C397.508 352.582 397.386 352.681 397.055 352.673C396.705 352.641 395.563 352.558 394.344 352.38C394.496 352.813 394.668 353.47 394.692 353.87C396.31 354.041 397.386 354.117 398.07 353.937C398.709 353.753 398.978 353.314 399.074 352.417L400.432 339.84ZM394.604 335.417C394.916 334.981 395.207 334.544 395.456 334.081L393.94 333.566C393.077 335.21 391.61 336.71 390.048 337.649C390.424 337.86 391.082 338.318 391.363 338.587C392.125 338.083 392.907 337.403 393.61 336.629L395.319 336.786C395.83 337.584 396.344 338.559 396.519 339.193L398.017 338.845C397.83 338.32 397.465 337.601 397.049 336.945L401.606 337.363L401.745 336.073L394.604 335.417ZM406.853 346.151L407.105 343.811L412.276 344.286L412.023 346.626L406.853 346.151ZM407.497 340.18L412.667 340.655L412.415 342.995L407.245 342.52L407.497 340.18ZM419.491 343.646L414.058 343.146L414.31 340.806L419.744 341.305L419.491 343.646ZM419.099 347.276L413.666 346.777L413.919 344.437L419.352 344.936L419.099 347.276ZM422.285 350.971L413.302 350.146L413.517 348.155L420.615 348.807L421.557 340.08L419.257 339.869C420.081 338.995 421.022 337.866 421.819 336.835L420.128 336.105C419.479 337.194 418.341 338.724 417.417 339.7L413.517 339.341L414.82 338.953C414.635 338.008 413.997 336.536 413.387 335.419L411.882 335.833C412.472 336.926 413.025 338.368 413.21 339.313L408.5 338.88L409.679 338.414C409.331 337.543 408.506 336.164 407.773 335.169L406.326 335.654C406.996 336.622 407.738 337.949 408.062 338.84L406.047 338.655L405.105 347.382L411.874 348.004L411.659 349.995L402.831 349.183L402.668 350.693L411.496 351.504L411.074 355.419L412.717 355.57L413.14 351.655L422.122 352.48L422.285 350.971ZM428.794 338.624C428.745 339.084 428.596 339.644 428.476 340.141C428.022 341.889 426.919 345.543 426.575 348.736C426.258 351.667 426.34 354.193 426.613 355.765L428.202 355.8L428.219 355.029C428.245 354.788 428.333 354.376 428.432 354.076C428.74 353.066 429.777 350.842 430.49 349.361L429.623 348.575C429.181 349.396 428.562 350.62 428.083 351.57C428.065 350.508 428.116 349.629 428.229 348.579C428.491 346.151 429.544 342.338 430.175 340.386C430.305 340 430.578 339.319 430.75 338.959L428.794 338.624ZM433.007 349.615C432.71 350.515 432.465 351.354 432.38 352.142C432.16 354.176 433.652 355.528 437.288 355.862C439.545 356.069 441.382 356.061 442.747 355.922L442.923 354.082C441.128 354.315 439.444 354.337 437.495 354.158C434.515 353.884 433.962 352.861 434.068 351.877C434.132 351.286 434.285 350.682 434.568 349.913L433.007 349.615ZM434.495 342.793C436.835 343.251 441.042 343.638 443.39 343.61L443.583 341.817C441.381 341.924 436.99 341.609 434.667 340.998L434.495 342.793ZM455.796 352.482L457.242 352.615L458.705 344.178L459.028 341.601L456.399 341.36L456.186 343.947L455.796 352.482ZM455.936 357.951C456.9 358.039 457.759 357.456 457.875 356.384C457.986 355.356 457.27 354.605 456.306 354.517C455.342 354.428 454.48 355.034 454.369 356.062C454.254 357.134 454.972 357.862 455.936 357.951ZM477.703 354.495L479.149 354.628L480.613 346.191L480.935 343.614L478.306 343.373L478.094 345.96L477.703 354.495ZM477.843 359.964C478.807 360.053 479.667 359.469 479.782 358.397C479.893 357.369 479.178 356.618 478.214 356.53C477.25 356.441 476.388 357.047 476.277 358.075C476.162 359.147 476.879 359.875 477.843 359.964Z" fill="black"/>
</g>
<defs>
<filter id="filter0_d" x="38" y="50" width="498.655" height="483.431" filterUnits="userSpaceOnUse" color-interpolation-filters="sRGB">
<feFlood flood-opacity="0" result="BackgroundImageFix"/>
<feColorMatrix in="SourceAlpha" type="matrix" values="0 0 0 0 0 0 0 0 0 0 0 0 0 0 0 0 0 0 127 0"/>
<feOffset dy="4"/>
<feGaussianBlur stdDeviation="2"/>
<feColorMatrix type="matrix" values="0 0 0 0 0 0 0 0 0 0 0 0 0 0 0 0 0 0 0.25 0"/>
<feBlend mode="normal" in2="BackgroundImageFix" result="effect1_dropShadow"/>
<feBlend mode="normal" in="SourceGraphic" in2="effect1_dropShadow" result="shape"/>
</filter>
</defs>
</svg>
