<svg width="575" height="575" viewBox="0 0 575 575" fill="none" xmlns="http://www.w3.org/2000/svg">
<g clip-path="url(#clip0)">
<rect width="575" height="575" fill="#7A7A7A"/>
<rect x="17.5" y="18.5" width="539" height="539" rx="269.5" fill="white"/>
<rect x="17.5" y="18.5" width="539" height="539" rx="269.5" stroke="#C8C8C8"/>
<path fill-rule="evenodd" clip-rule="evenodd" d="M540.39 408.592C544.077 404.265 546.571 398.962 546.155 393.02C544.953 375.9 521.121 379.666 516.485 388.307C511.849 396.948 512.4 418.866 518.392 420.411C520.781 421.027 525.871 419.518 531.052 416.395L527.8 439.4H547L540.39 408.592Z" fill="#915B3C"/>
<path fill-rule="evenodd" clip-rule="evenodd" d="M541.866 412.446C544.275 401.726 551.141 394.418 550.092 389.626C549.393 386.431 547.53 384.445 544.503 383.666C542.938 377.333 537.888 374.639 529.356 375.585C516.557 377.003 508.745 382.319 512.118 394.015C515.219 394.015 518.963 392.893 524.14 394.815C525.782 395.424 526.957 397.315 527.664 400.487H530.004C532.274 396.723 534.513 395.34 536.72 396.337C538.926 397.335 539.428 399.758 538.225 403.607L539.377 412.446H541.866Z" fill="#191847"/>
<path fill-rule="evenodd" clip-rule="evenodd" d="M600.6 539.4H508.6C501.531 539.4 495.8 545.131 495.8 552.2V625.8C495.8 632.87 501.531 638.6 508.6 638.6H600.6C607.67 638.6 613.4 632.87 613.4 625.8V552.2C613.4 545.131 607.67 539.4 600.6 539.4ZM587.8 561.8C589.568 561.8 591 563.233 591 565V613C591 614.768 589.568 616.2 587.8 616.2H521.4C519.633 616.2 518.2 614.768 518.2 613V565C518.2 563.233 519.633 561.8 521.4 561.8H587.8Z" fill="#C5CFD6"/>
<path fill-rule="evenodd" clip-rule="evenodd" d="M416.473 634.6C432.246 615.339 442.918 601.06 448.49 591.763C458.03 575.844 465.838 561.679 468.302 556.267C474.178 543.364 454.775 537.322 450.384 543.341C443.737 552.45 429.543 581.114 407.8 629.334L416.473 634.6Z" fill="#B28B67"/>
<path fill-rule="evenodd" clip-rule="evenodd" d="M448.794 629L478.148 555.109C484.427 541.64 454.108 532.786 449.494 539.054C439.019 553.286 414.121 609.427 411 613.667L448.794 629Z" fill="#2F3676"/>
<path fill-rule="evenodd" clip-rule="evenodd" d="M526.974 614.182C521.256 605.841 500.457 577.78 489.129 566.169C485.874 562.833 482.697 559.63 479.693 556.646C470.763 547.776 452.981 562.685 461.894 570.764C484.092 590.884 516.479 618.046 519.185 620.468C522.978 623.862 530.567 619.424 526.974 614.182Z" fill="#915B3C"/>
<path fill-rule="evenodd" clip-rule="evenodd" d="M488.711 558.8C513.108 554.826 529.45 552.108 537.736 550.647C561.355 546.482 568.242 533.772 564.17 506.042H520.653C514.894 507.705 490.832 517.99 448.467 536.898C440.844 540.681 442.264 551.838 443.657 555.514C443.714 555.664 456.564 577.683 482.207 621.57L517.805 598.893L488.644 561.473C487.874 559.921 487.896 559.031 488.711 558.8Z" fill="#5C63AB"/>
<path fill-rule="evenodd" clip-rule="evenodd" d="M485.575 495.57L460.057 514.309C453.136 516.177 447.353 518.5 442.709 521.28C441.613 522.279 440.287 524.304 444.836 523.954C449.385 523.604 454.186 523.441 454.814 524.992C455.441 526.544 452.688 528.4 453.957 530.493C454.803 531.889 458.8 528.389 465.946 519.994L491.216 509.515L485.575 495.57ZM583.554 496.217L566.836 496.283C577.159 529.606 582.731 547.287 583.554 549.326C585.405 553.913 581.488 560.9 579.813 564.655C585.269 567.096 584.687 558.055 591.57 561.257C597.852 564.179 602.631 569.475 609.889 564.997C610.781 564.446 611.759 562.373 609.397 560.753C603.51 556.717 595.028 549.653 593.882 547.328C592.319 544.157 588.876 527.12 583.554 496.217Z" fill="#915B3C"/>
<path fill-rule="evenodd" clip-rule="evenodd" d="M536.044 426.066L529.127 424.88C503.46 447.052 492.918 489.648 461.457 512.212L469.029 521.599C523.608 514.841 537.136 462.884 536.044 426.066Z" fill="#E87613"/>
<path fill-rule="evenodd" clip-rule="evenodd" d="M566.2 513.001C538.463 513.001 518.06 513.001 504.991 513.001C502.194 513.001 502.721 508.962 503.125 506.924C507.792 483.404 526.007 458.05 526.007 424.569L543.663 421.801C558.266 445.288 563.316 474.204 566.2 513.001Z" fill="#DDE3E9"/>
<path fill-rule="evenodd" clip-rule="evenodd" d="M565.709 444.887C568.273 444.15 570.303 442.431 571.8 439.73C578.254 428.086 575.923 421.675 569.027 419.567C562.13 417.46 555.98 421.801 544.992 421.801C544.395 421.801 543.847 421.838 543.35 421.913L537.823 422.229C521.965 475.973 517.592 511.83 524.703 529.801H572.879C575.733 536.457 578.465 542.057 581.073 546.601H594.2C595.436 506.655 585.939 472.75 565.709 444.887Z" fill="#FF9B21"/>
<path fill-rule="evenodd" clip-rule="evenodd" d="M562.388 502.199C560.873 514.876 558.41 524.077 555 529.801H572.879C569.549 522.037 566.052 512.837 562.388 502.199V502.199Z" fill="black" fill-opacity="0.1"/>
</g>
<defs>
<clipPath id="clip0">
<rect width="575" height="575" fill="white"/>
</clipPath>
</defs>
</svg>
