<svg width="380" height="480" viewBox="0 0 380 480" fill="none" xmlns="http://www.w3.org/2000/svg">
<path fill-rule="evenodd" clip-rule="evenodd" d="M183.373 82.2997C178.567 76.6589 175.314 69.7461 175.858 62.0001C177.424 39.6816 208.492 44.5914 214.535 55.8558C220.579 67.1203 219.861 95.6934 212.05 97.7067C208.935 98.5096 202.3 96.5429 195.546 92.4723L199.785 122.461H174.756L183.373 82.2997Z" fill="#B28B67"/>
<path fill-rule="evenodd" clip-rule="evenodd" d="M203.497 57.4893C200.1 59.3893 197.683 62.9495 194.773 67.6194C194.065 67.3408 193.293 67.1878 192.485 67.1878C189.029 67.1878 186.228 69.9894 186.228 73.4452C186.228 75.1996 186.95 76.7853 188.113 77.9215C186.665 79.9652 185.042 82.1001 183.183 84.303C176.244 80.14 171.083 68.0069 177.709 56.294C183.409 32.8322 215.709 47.3947 221.923 43.4377C223.281 51.9516 218.9 58.8166 203.497 57.4893Z" fill="#191847"/>
<path fill-rule="evenodd" clip-rule="evenodd" d="M173.748 213L224.935 342.556L259.266 452.084H272.823L220.338 213L173.748 213Z" fill="#997659"/>
<path fill-rule="evenodd" clip-rule="evenodd" d="M163.441 213C162.896 258.527 154.946 319.821 153.676 322.659C152.83 324.551 123.602 348.61 65.9917 394.837L75.329 404.829C143.303 365.195 178.863 342.736 182.009 337.449C186.727 329.52 202.088 256.555 214.421 213H163.441Z" fill="#B28B67"/>
<path fill-rule="evenodd" clip-rule="evenodd" d="M64.7429 391.502C61.6071 392.61 59.4468 393.661 58.2623 394.655C56.8217 395.864 54.9208 397.868 52.5597 400.667C53.962 402.338 66.5652 417.358 90.3692 445.726C95.2228 443.649 96.7455 441.22 94.9373 438.438C93.1291 435.656 91.6492 433.326 90.4978 431.449L82.2609 402.671C82.1024 402.118 81.525 401.797 80.9713 401.956C80.9618 401.958 80.9524 401.961 80.943 401.964L76.5478 403.358C73.4984 401.937 71.3612 400.496 70.1359 399.036C69.1405 397.85 68.2449 395.81 67.4491 392.915L67.4491 392.915C67.1438 391.804 65.9958 391.152 64.885 391.457C64.8371 391.47 64.7897 391.485 64.7429 391.502Z" fill="#E4E4E4"/>
<path fill-rule="evenodd" clip-rule="evenodd" d="M253.715 447.028C252.549 450.142 251.965 452.473 251.965 454.019C251.965 455.9 252.279 458.644 252.905 462.252C255.087 462.252 274.694 462.252 311.726 462.252C313.255 457.199 312.373 454.47 309.079 454.067C305.786 453.665 303.05 453.301 300.872 452.976L273.532 440.788C273.006 440.553 272.39 440.79 272.155 441.316C272.151 441.325 272.147 441.334 272.144 441.343L270.386 445.606C267.337 447.028 264.86 447.74 262.954 447.74C261.405 447.74 259.267 447.114 256.538 445.863L256.538 445.863C255.491 445.383 254.253 445.843 253.773 446.89C253.752 446.935 253.733 446.981 253.715 447.028Z" fill="#E4E4E4"/>
<path fill-rule="evenodd" clip-rule="evenodd" d="M208.164 440.803L272.619 433.807L224.85 213H167.12L208.164 440.803Z" fill="#69A1AC"/>
<path fill-rule="evenodd" clip-rule="evenodd" d="M79.3242 378.717L121.603 428.76C166.135 380.124 192.097 348.389 199.489 333.555C206.882 318.72 213.527 278.536 219.426 213H154.432C151.21 270.655 149.038 300.824 147.916 303.507C146.794 306.19 123.93 331.26 79.3242 378.717Z" fill="#89C5CC"/>
<path fill-rule="evenodd" clip-rule="evenodd" d="M267.843 200.393L298.493 230.1C307.41 233.88 314.717 238.053 320.413 242.62C321.694 244.155 323.089 247.097 317.062 245.78C311.035 244.464 304.636 243.349 303.504 245.296C302.371 247.243 305.709 250.227 303.615 252.776C302.22 254.475 297.526 249.071 289.535 236.563L257.663 217.894L267.843 200.393ZM117.967 173.507L141.659 173.595C123.614 231.681 114.036 262.093 112.923 264.833C110.419 270.998 115.717 280.386 117.983 285.431C110.604 288.712 111.39 276.563 102.082 280.865C93.5856 284.793 87.1225 291.909 77.3063 285.891C76.0994 285.151 74.7769 282.365 77.9723 280.188C85.933 274.765 97.405 265.273 98.955 262.149C101.069 257.888 107.406 228.341 117.967 173.507Z" fill="#B28B67"/>
<path fill-rule="evenodd" clip-rule="evenodd" d="M190.161 106.731L199.516 105.137C214.255 156.9 289.979 192.183 294.628 211.533C296.333 218.629 291.192 222.217 293.848 224.378L281.687 233.223C279.628 230.836 275.233 235.202 266.056 232.148C256.879 229.093 190.161 168.023 190.161 106.731Z" fill="#DB2721"/>
<path fill-rule="evenodd" clip-rule="evenodd" d="M205.899 113.613C204.82 182.143 244.692 199.624 235.811 227.115C228.477 249.817 158.278 274.221 146.131 251.968C141.214 242.96 138.983 232.066 138.73 220.222C135.625 229.321 133.169 237.155 131.363 243.723C128.247 255.053 116.167 256.854 116.167 261.219L100.252 256.854C101.332 250.924 93.8289 248.037 95.8406 234.789C104.854 175.431 129.072 132.405 168.494 105.709L168.911 99.7862C169.076 97.4897 171.068 95.7582 173.365 95.914L202.818 97.9603C205.117 98.1163 206.851 100.109 206.691 102.407C206.691 102.409 206.691 102.41 206.687 102.411L205.899 113.613Z" fill="#FF4133"/>
</svg>
