<svg width="380" height="400" viewBox="0 0 380 400" fill="none" xmlns="http://www.w3.org/2000/svg">
<path fill-rule="evenodd" clip-rule="evenodd" d="M211.738 89.4901C216.346 84.0814 219.464 77.4529 218.943 70.0255C217.442 48.625 187.651 53.3328 181.857 64.1339C176.062 74.9351 176.75 102.333 184.24 104.263C187.226 105.033 193.589 103.147 200.065 99.2443L196 128H220L211.738 89.4901Z" fill="#915B3C"/>
<path fill-rule="evenodd" clip-rule="evenodd" d="M213.582 94.3075C216.594 80.9065 225.175 71.7714 223.865 65.7817C222.991 61.7886 220.662 59.3054 216.879 58.3321C214.922 50.4155 208.61 47.0482 197.944 48.2304C181.945 50.0036 172.181 56.6478 176.398 71.2679C180.274 71.2679 184.954 69.866 191.424 72.2679C193.478 73.03 194.946 75.3934 195.83 79.358H198.754C201.592 74.6531 204.391 72.9241 207.149 74.1712C209.908 75.4183 210.535 78.4474 209.03 83.2586L210.471 94.3075H213.582Z" fill="#191847"/>
<path fill-rule="evenodd" clip-rule="evenodd" d="M287 253H172C163.163 253 156 260.163 156 269V361C156 369.837 163.163 377 172 377H287C295.837 377 303 369.837 303 361V269C303 260.163 295.837 253 287 253ZM271 281C273.209 281 275 282.791 275 285V345C275 347.209 273.209 349 271 349H188C185.791 349 184 347.209 184 345V285C184 282.791 185.791 281 188 281H271Z" fill="#C5CFD6"/>
<path fill-rule="evenodd" clip-rule="evenodd" d="M56.841 372C76.5569 347.924 89.8971 330.075 96.8617 318.454C108.787 298.555 118.547 280.848 121.627 274.084C128.972 257.955 104.718 250.403 99.229 257.926C90.9209 269.312 73.178 305.143 46 365.417L56.841 372Z" fill="#B28B67"/>
<path fill-rule="evenodd" clip-rule="evenodd" d="M97.2424 365L133.935 272.637C141.783 255.8 103.884 244.732 98.1167 252.568C85.0227 270.357 53.9012 340.534 50 345.834L97.2424 365Z" fill="#2F3676"/>
<path fill-rule="evenodd" clip-rule="evenodd" d="M194.967 346.477C187.82 336.051 161.822 300.974 147.661 286.461C143.592 282.291 139.622 278.288 135.866 274.557C124.704 263.47 102.477 282.106 113.618 292.205C141.365 317.355 181.849 351.307 185.232 354.334C189.972 358.577 199.459 353.029 194.967 346.477Z" fill="#915B3C"/>
<path fill-rule="evenodd" clip-rule="evenodd" d="M193.296 341.767C195.758 343.794 197.359 345.449 198.101 346.733C199.002 348.295 200.058 350.724 201.267 354.021C199.456 355.067 183.174 364.467 152.422 382.221C148.73 378.758 148.155 376.069 150.696 374.156C153.238 372.242 155.335 370.629 156.988 369.315L173.848 346.086C174.172 345.639 174.798 345.54 175.245 345.864C175.252 345.87 175.26 345.875 175.267 345.881L178.77 348.579C181.984 348.298 184.382 347.701 185.965 346.787C187.251 346.045 188.727 344.5 190.394 342.153L190.394 342.153C191.033 341.252 192.281 341.04 193.182 341.68C193.221 341.707 193.259 341.736 193.296 341.767Z" fill="#E4E4E4"/>
<path fill-rule="evenodd" clip-rule="evenodd" d="M65.3219 368.401C66.4406 371.387 67 373.622 67 375.105C67 376.908 66.6996 379.539 66.0988 382.999C64.0068 382.999 45.2062 382.999 9.69695 382.999C8.23126 378.154 9.07734 375.538 12.2352 375.151C15.393 374.765 18.0163 374.416 20.105 374.105L46.32 362.418C46.8244 362.193 47.4157 362.42 47.6405 362.924C47.6444 362.933 47.6481 362.941 47.6517 362.95L49.3368 367.038C52.2601 368.402 54.6356 369.084 56.4633 369.084C57.9483 369.084 59.999 368.484 62.6155 367.285L62.6155 367.285C63.6196 366.824 64.8067 367.265 65.267 368.269C65.2869 368.312 65.3052 368.356 65.3219 368.401Z" fill="#E4E4E4"/>
<path fill-rule="evenodd" clip-rule="evenodd" d="M147.138 277.25C177.635 272.281 198.062 268.884 208.42 267.058C237.943 261.852 246.552 245.965 241.462 211.302H187.066C179.867 213.381 149.79 226.237 96.8325 249.871C87.3045 254.601 89.079 268.547 90.8205 273.142C90.8915 273.329 106.954 300.853 139.008 355.712L183.506 327.365L147.054 280.59C146.092 278.651 146.12 277.538 147.138 277.25Z" fill="#5C63AB"/>
<path fill-rule="evenodd" clip-rule="evenodd" d="M143.219 198.211L111.321 221.635C102.669 223.969 95.4412 226.873 89.6366 230.348C88.2655 231.597 86.6083 234.128 92.2948 233.69C97.9812 233.253 103.982 233.049 104.767 234.988C105.551 236.928 102.11 239.247 103.696 241.864C104.754 243.609 109.749 239.234 118.683 228.741L150.27 215.642L143.219 198.211ZM265.692 199.019L244.795 199.102C257.698 240.755 264.664 262.856 265.692 265.405C268.006 271.14 263.11 279.873 261.016 284.567C267.836 287.618 267.109 276.316 275.712 280.319C283.565 283.972 289.538 290.592 298.611 284.994C299.727 284.306 300.949 281.714 297.996 279.689C290.638 274.644 280.035 265.814 278.602 262.908C276.649 258.944 272.345 237.648 265.692 199.019Z" fill="#915B3C"/>
<path fill-rule="evenodd" clip-rule="evenodd" d="M206.305 111.332L197.658 109.849C165.575 137.564 152.397 190.809 113.071 219.015L122.536 230.748C190.76 222.301 207.67 157.355 206.305 111.332Z" fill="#E87613"/>
<path fill-rule="evenodd" clip-rule="evenodd" d="M244 220C209.328 220 183.824 220 167.489 220C163.992 220 164.651 214.952 165.157 212.404C170.989 183.004 193.759 151.312 193.759 109.461L215.828 106C234.083 135.358 240.395 171.505 244 220Z" fill="#DDE3E9"/>
<path fill-rule="evenodd" clip-rule="evenodd" d="M243.385 134.858C246.59 133.936 249.129 131.787 251 128.411C259.066 113.856 256.153 105.842 247.533 103.208C238.912 100.574 231.225 106 217.49 106C216.743 106 216.059 106.046 215.437 106.14L208.528 106.534C188.706 173.715 183.239 218.537 192.128 241H252.348C255.916 249.319 259.33 256.319 262.591 262H279C280.544 212.067 268.673 169.686 243.385 134.858Z" fill="#FF9B21"/>
<path fill-rule="evenodd" clip-rule="evenodd" d="M239.235 206.497C237.341 222.343 234.263 233.844 230 240.999H252.348C248.186 231.295 243.815 219.794 239.235 206.497Z" fill="black" fill-opacity="0.1"/>
</svg>
