<svg width="575" height="575" viewBox="0 0 575 575" fill="none" xmlns="http://www.w3.org/2000/svg">
<path d="M575 0H0V575H575V0Z" fill="white"/>
<path d="M575 575V315.1L0 315.1V575H575Z" fill="#E5D9D9"/>
<path d="M65.2308 105.351C65.2308 112.165 65.6804 118.079 66.5786 123.095C67.4773 128.112 69.0867 132.267 71.408 135.561C73.8035 138.781 76.7981 140.39 80.3918 140.39C83.1622 140.39 85.5208 139.455 87.4672 137.582C89.4889 135.636 91.0236 132.941 92.0718 129.497C93.1948 126.053 93.9808 122.384 94.4304 118.491C94.9543 114.523 95.2165 110.143 95.2165 105.351C95.2165 100.41 94.9543 95.88 94.4304 91.7625C93.906 87.6443 93.0453 83.9385 91.847 80.6443C90.724 77.3501 89.1519 74.8046 87.1302 73.0077C85.1839 71.1361 82.8626 70.2 80.1676 70.2C76.6486 70.2 73.7287 71.8473 71.408 75.1415C69.0867 78.3609 67.4773 82.5159 66.5786 87.6069C65.6804 92.6232 65.2308 98.5383 65.2308 105.351ZM51.979 105.351C51.979 96.8909 52.8026 89.5539 54.4497 83.3399C56.0969 77.1253 58.3429 72.3712 61.188 69.077C64.0331 65.7828 67.0277 63.3868 70.1723 61.8895C73.317 60.3922 76.6486 59.6436 80.1676 59.6436C89.1519 59.6436 96.1146 63.649 101.056 71.6599C105.998 79.5961 108.468 90.8264 108.468 105.351C108.468 119.202 106.072 130.283 101.281 138.593C96.5643 146.829 89.601 150.947 80.3918 150.947C76.8734 150.947 73.5413 150.199 70.3972 148.701C67.2525 147.203 64.2579 144.808 61.4128 141.513C58.5677 138.219 56.284 133.465 54.562 127.251C52.84 121.036 51.979 113.737 51.979 105.351ZM133.4 83.9011C133.4 88.0192 134.635 91.3508 137.106 93.8963C139.651 96.4418 142.759 97.7149 146.427 97.7149C150.171 97.7149 153.24 96.4418 155.636 93.8963C158.107 91.276 159.342 87.9439 159.342 83.9011C159.342 80.0078 158.144 76.751 155.748 74.1307C153.353 71.5104 150.246 70.2 146.427 70.2C142.534 70.2 139.39 71.5104 136.994 74.1307C134.598 76.751 133.4 80.0078 133.4 83.9011ZM117.565 125.117C117.565 119.202 119.1 114.373 122.17 110.629C125.314 106.886 128.983 104.228 133.175 102.656C124.565 98.5383 120.26 92.0994 120.26 83.3399C120.26 76.5267 122.731 70.8739 127.672 66.3814C132.689 61.8895 138.94 59.6436 146.427 59.6436C153.914 59.6436 160.128 61.8895 165.07 66.3814C170.086 70.8739 172.594 76.5267 172.594 83.3399C172.594 88.0566 171.359 92.0247 168.888 95.2441C166.418 98.4635 163.31 100.934 159.567 102.656C163.984 104.228 167.728 106.923 170.797 110.742C173.867 114.56 175.402 119.389 175.402 125.229C175.402 132.866 172.706 139.08 167.316 143.872C161.925 148.589 154.962 150.947 146.427 150.947C138.341 150.947 131.491 148.663 125.875 144.097C120.335 139.455 117.565 133.128 117.565 125.117ZM130.704 124.443C130.704 129.01 132.165 132.828 135.085 135.898C138.079 138.893 141.86 140.39 146.427 140.39C150.994 140.39 154.738 138.893 157.658 135.898C160.653 132.828 162.15 129.01 162.15 124.443C162.15 119.951 160.653 116.133 157.658 112.988C154.738 109.769 150.994 108.159 146.427 108.159C141.935 108.159 138.191 109.731 135.197 112.876C132.202 116.02 130.704 119.876 130.704 124.443Z" fill="#F8DACB"/>
<path d="M115 195.5V148.35H112.125V195.5H115Z" fill="black"/>
<path d="M541.075 19.5498H498.525V22.4248H541.075V19.5498Z" fill="black"/>
<rect x="189" y="15" width="300" height="15" fill="#C4C4C4"/>
<rect x="241" y="527" width="300" height="15" fill="#C4C4C4"/>
<rect x="98" y="81" width="422" height="47" fill="#C4C4C4"/>
<rect x="33" y="177" width="508" height="342" fill="#C4C4C4"/>
</svg>
