<svg width="575" height="575" viewBox="0 0 575 575" fill="none" xmlns="http://www.w3.org/2000/svg">
<g clip-path="url(#clip0)">
<rect width="575" height="575" fill="#7A7A7A"/>
<rect x="17.5" y="18.5" width="539" height="539" fill="white"/>
<path d="M46.2617 103H42.7461V85.9375H46.2617V103ZM52.4258 90.3203L52.5312 91.7852C53.4375 90.6523 54.6523 90.0859 56.1758 90.0859C57.5195 90.0859 58.5195 90.4805 59.1758 91.2695C59.832 92.0586 60.168 93.2383 60.1836 94.8086V103H56.7969V94.8906C56.7969 94.1719 56.6406 93.6523 56.3281 93.332C56.0156 93.0039 55.4961 92.8398 54.7695 92.8398C53.8164 92.8398 53.1016 93.2461 52.625 94.0586V103H49.2383V90.3203H52.4258ZM69.6289 99.4961C69.6289 99.082 69.4219 98.7578 69.0078 98.5234C68.6016 98.2812 67.9453 98.0664 67.0391 97.8789C64.0234 97.2461 62.5156 95.9648 62.5156 94.0352C62.5156 92.9102 62.9805 91.9727 63.9102 91.2227C64.8477 90.4648 66.0703 90.0859 67.5781 90.0859C69.1875 90.0859 70.4727 90.4648 71.4336 91.2227C72.4023 91.9805 72.8867 92.9648 72.8867 94.1758H69.5C69.5 93.6914 69.3438 93.293 69.0312 92.9805C68.7188 92.6602 68.2305 92.5 67.5664 92.5C66.9961 92.5 66.5547 92.6289 66.2422 92.8867C65.9297 93.1445 65.7734 93.4727 65.7734 93.8711C65.7734 94.2461 65.9492 94.5508 66.3008 94.7852C66.6602 95.0117 67.2617 95.2109 68.1055 95.3828C68.9492 95.5469 69.6602 95.7344 70.2383 95.9453C72.0273 96.6016 72.9219 97.7383 72.9219 99.3555C72.9219 100.512 72.4258 101.449 71.4336 102.168C70.4414 102.879 69.1602 103.234 67.5898 103.234C66.5273 103.234 65.582 103.047 64.7539 102.672C63.9336 102.289 63.2891 101.77 62.8203 101.113C62.3516 100.449 62.1172 99.7344 62.1172 98.9688H65.3281C65.3594 99.5703 65.582 100.031 65.9961 100.352C66.4102 100.672 66.9648 100.832 67.6602 100.832C68.3086 100.832 68.7969 100.711 69.125 100.469C69.4609 100.219 69.6289 99.8945 69.6289 99.4961ZM79.168 87.2031V90.3203H81.3359V92.8047H79.168V99.1328C79.168 99.6016 79.2578 99.9375 79.4375 100.141C79.6172 100.344 79.9609 100.445 80.4688 100.445C80.8438 100.445 81.1758 100.418 81.4648 100.363V102.93C80.8008 103.133 80.1172 103.234 79.4141 103.234C77.0391 103.234 75.8281 102.035 75.7812 99.6367V92.8047H73.9297V90.3203H75.7812V87.2031H79.168ZM90.5703 103C90.4141 102.695 90.3008 102.316 90.2305 101.863C89.4102 102.777 88.3438 103.234 87.0312 103.234C85.7891 103.234 84.7578 102.875 83.9375 102.156C83.125 101.438 82.7188 100.531 82.7188 99.4375C82.7188 98.0938 83.2148 97.0625 84.207 96.3438C85.207 95.625 86.6484 95.2617 88.5312 95.2539H90.0898V94.5273C90.0898 93.9414 89.9375 93.4727 89.6328 93.1211C89.3359 92.7695 88.8633 92.5938 88.2148 92.5938C87.6445 92.5938 87.1953 92.7305 86.8672 93.0039C86.5469 93.2773 86.3867 93.6523 86.3867 94.1289H83C83 93.3945 83.2266 92.7148 83.6797 92.0898C84.1328 91.4648 84.7734 90.9766 85.6016 90.625C86.4297 90.2656 87.3594 90.0859 88.3906 90.0859C89.9531 90.0859 91.1914 90.4805 92.1055 91.2695C93.0273 92.0508 93.4883 93.1523 93.4883 94.5742V100.07C93.4961 101.273 93.6641 102.184 93.9922 102.801V103H90.5703ZM87.7695 100.645C88.2695 100.645 88.7305 100.535 89.1523 100.316C89.5742 100.09 89.8867 99.7891 90.0898 99.4141V97.2344H88.8242C87.1289 97.2344 86.2266 97.8203 86.1172 98.9922L86.1055 99.1914C86.1055 99.6133 86.2539 99.9609 86.5508 100.234C86.8477 100.508 87.2539 100.645 87.7695 100.645ZM95.5977 96.5664C95.5977 94.6211 96.0586 93.0547 96.9805 91.8672C97.9102 90.6797 99.1602 90.0859 100.73 90.0859C102.121 90.0859 103.203 90.5625 103.977 91.5156L104.117 90.3203H107.188V102.578C107.188 103.688 106.934 104.652 106.426 105.473C105.926 106.293 105.219 106.918 104.305 107.348C103.391 107.777 102.32 107.992 101.094 107.992C100.164 107.992 99.2578 107.805 98.375 107.43C97.4922 107.062 96.8242 106.586 96.3711 106L97.8711 103.938C98.7148 104.883 99.7383 105.355 100.941 105.355C101.84 105.355 102.539 105.113 103.039 104.629C103.539 104.152 103.789 103.473 103.789 102.59V101.91C103.008 102.793 101.98 103.234 100.707 103.234C99.1836 103.234 97.9492 102.641 97.0039 101.453C96.0664 100.258 95.5977 98.6758 95.5977 96.707V96.5664ZM98.9844 96.8125C98.9844 97.9609 99.2148 98.8633 99.6758 99.5195C100.137 100.168 100.77 100.492 101.574 100.492C102.605 100.492 103.344 100.105 103.789 99.332V94C103.336 93.2266 102.605 92.8398 101.598 92.8398C100.785 92.8398 100.145 93.1719 99.6758 93.8359C99.2148 94.5 98.9844 95.4922 98.9844 96.8125ZM116.926 93.4961C116.465 93.4336 116.059 93.4023 115.707 93.4023C114.426 93.4023 113.586 93.8359 113.188 94.7031V103H109.801V90.3203H113L113.094 91.832C113.773 90.668 114.715 90.0859 115.918 90.0859C116.293 90.0859 116.645 90.1367 116.973 90.2383L116.926 93.4961ZM125.562 103C125.406 102.695 125.293 102.316 125.223 101.863C124.402 102.777 123.336 103.234 122.023 103.234C120.781 103.234 119.75 102.875 118.93 102.156C118.117 101.438 117.711 100.531 117.711 99.4375C117.711 98.0938 118.207 97.0625 119.199 96.3438C120.199 95.625 121.641 95.2617 123.523 95.2539H125.082V94.5273C125.082 93.9414 124.93 93.4727 124.625 93.1211C124.328 92.7695 123.855 92.5938 123.207 92.5938C122.637 92.5938 122.188 92.7305 121.859 93.0039C121.539 93.2773 121.379 93.6523 121.379 94.1289H117.992C117.992 93.3945 118.219 92.7148 118.672 92.0898C119.125 91.4648 119.766 90.9766 120.594 90.625C121.422 90.2656 122.352 90.0859 123.383 90.0859C124.945 90.0859 126.184 90.4805 127.098 91.2695C128.02 92.0508 128.48 93.1523 128.48 94.5742V100.07C128.488 101.273 128.656 102.184 128.984 102.801V103H125.562ZM122.762 100.645C123.262 100.645 123.723 100.535 124.145 100.316C124.566 100.09 124.879 99.7891 125.082 99.4141V97.2344H123.816C122.121 97.2344 121.219 97.8203 121.109 98.9922L121.098 99.1914C121.098 99.6133 121.246 99.9609 121.543 100.234C121.84 100.508 122.246 100.645 122.762 100.645ZM134.258 90.3203L134.363 91.7383C135.262 90.6367 136.477 90.0859 138.008 90.0859C139.641 90.0859 140.762 90.7305 141.371 92.0195C142.262 90.7305 143.531 90.0859 145.18 90.0859C146.555 90.0859 147.578 90.4883 148.25 91.293C148.922 92.0898 149.258 93.293 149.258 94.9023V103H145.859V94.9141C145.859 94.1953 145.719 93.6719 145.438 93.3438C145.156 93.0078 144.66 92.8398 143.949 92.8398C142.934 92.8398 142.23 93.3242 141.84 94.293L141.852 103H138.465V94.9258C138.465 94.1914 138.32 93.6602 138.031 93.332C137.742 93.0039 137.25 92.8398 136.555 92.8398C135.594 92.8398 134.898 93.2383 134.469 94.0352V103H131.082V90.3203H134.258ZM171.042 85.912C170.538 86.08 169.722 86.176 168.81 86.176H155.49C154.674 86.176 153.354 86.056 152.73 85.96V89.32C153.234 89.272 154.53 89.152 155.49 89.152H168.186C167.058 91.12 164.802 93.904 162.09 96.064C160.578 94.744 158.994 93.448 158.034 92.728L155.49 94.768C156.93 95.8 159.378 97.96 160.77 99.376C162.33 100.984 164.346 103.216 165.354 104.56L168.162 102.328C167.226 101.2 165.81 99.64 164.442 98.272C167.826 95.536 170.898 91.696 172.626 88.888C172.794 88.576 173.106 88.264 173.442 87.88L171.042 85.912ZM176.778 95.656C177.666 95.584 179.274 95.536 180.642 95.536H193.53C194.538 95.536 195.762 95.632 196.338 95.656V91.888C195.714 91.936 194.634 92.032 193.53 92.032H180.642C179.394 92.032 177.642 91.96 176.778 91.888V95.656ZM207.882 87.904C208.146 87.28 208.362 86.656 208.554 86.152C208.746 85.648 209.058 84.808 209.322 84.208L205.626 83.464C205.578 84.28 205.386 85.192 205.122 85.936C204.834 86.848 204.402 88.096 203.73 89.2C202.818 90.712 201.282 92.872 199.578 94.144L202.602 95.968C204.042 94.72 205.506 92.68 206.466 90.928H211.53C211.146 95.944 209.154 98.896 206.634 100.816C206.082 101.296 205.218 101.8 204.354 102.16L207.594 104.32C211.938 101.584 214.434 97.312 214.866 90.928H218.226C218.778 90.928 219.834 90.928 220.722 91.024V87.736C219.93 87.88 218.85 87.904 218.226 87.904H207.882ZM239.142 87.592C239.982 87.592 240.894 87.64 241.734 87.688V84.592C240.918 84.712 239.958 84.76 239.142 84.76H229.494C228.702 84.76 227.718 84.712 226.95 84.592V87.688C227.67 87.64 228.678 87.592 229.518 87.592H239.142ZM226.446 90.88C225.702 90.88 224.862 90.808 224.142 90.736V93.88C224.814 93.832 225.75 93.784 226.446 93.784H233.046C232.95 95.8 232.542 97.6 231.558 99.088C230.598 100.48 228.918 101.872 227.214 102.52L230.022 104.56C232.158 103.48 234.006 101.608 234.846 99.952C235.71 98.272 236.238 96.256 236.382 93.784H242.166C242.838 93.784 243.75 93.808 244.35 93.856V90.736C243.702 90.832 242.67 90.88 242.166 90.88H226.446ZM261.808 87.952C260.608 89.512 258.088 91.504 255.64 92.944C253.744 94.048 250.264 95.536 247.168 96.184L248.776 98.968C250.792 98.416 253.432 97.36 255.544 96.352V102.52C255.544 103.36 255.496 104.632 255.424 105.112H258.976C258.832 104.632 258.808 103.36 258.808 102.52V94.528C260.992 93.112 263.08 91.432 264.208 90.184L261.808 87.952ZM274.456 84.76L272.2 87.16C273.952 88.384 276.952 91 278.2 92.344L280.648 89.824C279.256 88.384 276.136 85.888 274.456 84.76ZM271.456 100.744L273.472 103.912C276.856 103.336 279.952 101.992 282.376 100.528C286.24 98.2 289.432 94.888 291.256 91.648L289.384 88.264C287.872 91.504 284.728 95.176 280.648 97.6C278.32 98.992 275.2 100.216 271.456 100.744ZM313.264 86.632C312.808 85.744 311.968 84.208 311.368 83.344L309.472 84.112C310.072 84.976 310.744 86.248 311.224 87.208L311.056 87.112C310.528 87.28 309.712 87.4 308.968 87.4H304.144L304.216 87.28C304.504 86.752 305.128 85.672 305.704 84.832L302.176 83.68C301.96 84.496 301.48 85.6 301.096 86.2C299.92 88.264 297.832 91.36 293.608 93.904L296.296 95.92C298.672 94.312 300.76 92.2 302.344 90.112H309.112C308.728 91.888 307.336 94.792 305.704 96.64C303.592 99.04 300.928 101.128 296.032 102.592L298.864 105.136C303.376 103.336 306.256 101.152 308.536 98.344C310.72 95.68 312.088 92.488 312.736 90.328C312.928 89.752 313.264 89.08 313.528 88.624L311.488 87.376L313.264 86.632ZM312.304 83.032C312.976 83.944 313.744 85.336 314.224 86.344L316.144 85.528C315.712 84.688 314.824 83.152 314.2 82.264L312.304 83.032ZM327.424 86.248L327.448 89.32C330.424 89.584 334.72 89.584 337.648 89.32V86.248C335.08 86.56 330.352 86.656 327.424 86.248ZM326.608 96.16C326.368 97.264 326.2 98.272 326.2 99.256C326.2 101.68 328.144 103.168 332.248 103.168C334.936 103.168 336.856 102.976 338.392 102.688L338.32 99.472C336.256 99.904 334.504 100.096 332.368 100.096C329.968 100.096 329.056 99.472 329.056 98.416C329.056 97.768 329.152 97.192 329.344 96.424L326.608 96.16ZM320.44 84.4C320.44 85.144 320.296 86.056 320.2 86.728C319.936 88.552 319.216 92.56 319.216 96.136C319.216 99.352 319.672 102.256 320.152 103.912L322.888 103.72C322.864 103.384 322.864 103 322.84 102.736C322.84 102.496 322.912 101.968 322.984 101.632C323.224 100.36 324.016 97.792 324.688 95.8L323.2 94.648C322.864 95.416 322.48 96.208 322.144 97.048C322.072 96.544 322.048 95.968 322.048 95.512C322.048 93.136 322.864 88.384 323.2 86.8C323.296 86.368 323.584 85.168 323.776 84.688L320.44 84.4ZM352.072 91.576H353.104V93.712H352.072V91.576ZM350.92 95.344H354.28V89.92H350.92V95.344ZM354.4 87.088H350.848V88.84H354.4V87.088ZM346.072 94.768H347.752V92.512H346.024L345.952 90.472H347.752V88.192H345.904L345.856 86.392C346.648 86.08 347.488 85.744 348.328 85.36V97.024H346.144L346.072 94.768ZM354.976 85.888V97.024H350.32V85.888H354.976ZM363.64 99.64V97.024H361.72C361.96 93.28 362.128 88.024 362.176 83.8H357.544V86.104H359.68C359.68 86.776 359.656 87.496 359.656 88.192H357.616V90.472H359.608C359.584 91.168 359.56 91.84 359.536 92.512H357.616V94.768H359.44C359.392 95.56 359.368 96.328 359.32 97.024H357.04V83.752H348.328L347.464 82.72C346.888 83.2 346.072 83.728 345.28 84.208L343.36 83.848L343.744 97.024H341.728V99.64H348.184C346.624 100.816 343.96 102.256 341.776 103.072C342.472 103.624 343.48 104.512 344.032 105.088C346.216 104.2 349.12 102.64 350.992 101.272L348.688 99.64H356.104L354.208 101.32C356.656 102.472 359.344 104.08 360.88 105.088L363.664 103.12C362.032 102.184 359.296 100.768 356.824 99.64H363.64ZM370.84 87.496V96.304H368.824V87.496H370.84ZM373.408 99.088V84.76H366.208V101.008H368.824V99.088H373.408ZM387.784 94.672V91.96H382.096V88.984H387.016V86.272H382.096V82.864H379.216V86.272H374.824V88.984H379.216V91.96H374.056V94.672H378.448C377.104 97.456 374.848 100.024 372.256 101.368C372.88 101.92 373.768 102.952 374.2 103.624C376.144 102.4 377.848 100.528 379.216 98.32V105.04H382.096V98.488C383.224 100.552 384.544 102.4 385.96 103.672C386.464 102.904 387.424 101.848 388.072 101.296C386.008 99.856 384.064 97.288 382.816 94.672H387.784ZM412.192 85.48C411.784 84.64 410.896 83.128 410.248 82.216L408.352 83.008C409.024 83.896 409.792 85.312 410.296 86.32L412.192 85.48ZM396.064 83.92C396.088 85.408 395.896 87.136 395.56 88.96C394.36 89.056 393.232 89.128 392.488 89.152C391.624 89.176 390.832 89.224 389.968 89.152L390.232 92.368C390.976 92.248 392.2 92.08 392.872 92.008C393.328 91.936 394.072 91.84 394.912 91.744C394.072 94.984 392.44 99.736 390.136 102.856L393.232 104.104C395.416 100.6 397.144 95.008 398.08 91.408C398.752 91.36 399.328 91.312 399.712 91.312C401.2 91.312 402.016 91.576 402.016 93.472C402.016 95.824 401.704 98.656 401.056 99.976C400.672 100.768 400.072 101.008 399.28 101.008C398.656 101.008 397.264 100.768 396.352 100.504L396.88 103.648C397.672 103.84 398.824 103.984 399.712 103.984C401.536 103.984 402.832 103.456 403.624 101.8C404.632 99.736 404.968 95.944 404.968 93.136C404.968 89.728 403.192 88.6 400.672 88.6C400.192 88.6 399.472 88.648 398.68 88.696C398.848 87.832 399.04 86.968 399.184 86.248C399.304 85.648 399.448 84.904 399.592 84.28L396.064 83.92ZM409.336 86.584C408.856 85.696 408.016 84.184 407.416 83.296L405.52 84.088C406.072 84.856 406.672 86.008 407.152 86.92L404.944 87.856C406.648 89.968 408.328 94.168 408.952 96.808L411.976 95.392C411.28 93.304 409.504 89.296 408.112 87.112L409.336 86.584ZM423.4 93.544C424.312 93.256 425.416 93.04 426.664 93.016C425.872 94.936 424.816 96.376 423.664 97.528C423.496 96.352 423.4 95.056 423.4 93.592V93.544ZM418.864 100.312C418.096 100.312 417.76 99.904 417.76 99.16C417.76 97.816 418.96 95.992 420.736 94.792C420.784 96.424 420.976 98.056 421.24 99.544C420.352 100.048 419.536 100.312 418.864 100.312ZM427.672 89.176C427.648 89.512 427.552 90.112 427.456 90.592H427.048C425.872 90.592 424.624 90.76 423.496 91.024C423.52 90.304 423.592 89.584 423.664 88.888C426.592 88.744 429.784 88.456 432.112 88.024L432.088 85.288C429.472 85.912 426.904 86.2 424.024 86.296C424.096 85.84 424.168 85.408 424.264 85.024C424.336 84.664 424.432 84.232 424.6 83.752L421.48 83.68C421.504 84.088 421.456 84.664 421.408 85.096L421.264 86.368H420.352C418.888 86.368 416.8 86.176 415.96 86.056L416.056 88.816C417.16 88.864 419.008 88.96 420.256 88.96H421.024C420.928 89.92 420.856 90.928 420.784 91.936C417.472 93.496 414.952 96.712 414.952 99.736C414.952 102.16 416.416 103.216 418.168 103.216C419.416 103.216 420.688 102.832 421.84 102.256C421.936 102.592 422.056 102.928 422.152 103.216L424.888 102.4C424.696 101.824 424.504 101.248 424.336 100.624C426.136 99.136 428.032 96.664 429.352 93.424C430.96 94.048 431.8 95.32 431.8 96.76C431.8 99.088 429.928 101.392 425.344 101.896L426.928 104.392C432.76 103.528 434.752 100.24 434.752 96.904C434.752 94.12 432.928 91.984 430.168 91.072C430.312 90.616 430.48 90.112 430.6 89.848L427.672 89.176ZM448.456 101.56C447.064 101.56 446.056 100.96 446.056 100.072C446.056 99.472 446.632 98.944 447.52 98.944C448.816 98.944 449.704 99.952 449.848 101.488C449.416 101.536 448.96 101.56 448.456 101.56ZM453.688 84.424C453.4 84.496 452.848 84.592 451.864 84.664C450.52 84.784 445.432 84.904 444.184 84.904C443.512 84.904 442.696 84.856 442.024 84.784L442.12 87.88C442.672 87.784 443.416 87.712 444.064 87.688C445.312 87.592 448.576 87.448 449.8 87.424C448.624 88.456 446.152 90.448 444.832 91.552C443.416 92.704 440.56 95.128 438.88 96.496L441.04 98.728C443.584 95.848 445.96 93.904 449.608 93.904C452.368 93.904 454.528 95.344 454.528 97.48C454.528 98.92 453.88 100.024 452.584 100.72C452.224 98.464 450.448 96.664 447.52 96.664C445 96.664 443.248 98.44 443.248 100.36C443.248 102.736 445.744 104.248 449.056 104.248C454.792 104.248 457.648 101.272 457.648 97.528C457.648 94.072 454.576 91.552 450.544 91.552C449.776 91.552 449.104 91.6 448.312 91.816C449.8 90.616 452.296 88.504 453.568 87.616C454.096 87.256 454.648 86.896 455.224 86.536L453.688 84.424ZM483.496 89.224V86.488H474.016V82.576H471.064V86.488H461.872V89.224H468.736C468.472 94.36 467.92 99.832 461.44 102.832C462.184 103.456 463.048 104.464 463.456 105.256C468.256 102.832 470.248 99.088 471.16 95.032H477.76C477.424 99.4 476.992 101.488 476.368 102.016C476.08 102.28 475.744 102.328 475.216 102.328C474.52 102.328 472.84 102.328 471.184 102.16C471.712 102.976 472.144 104.152 472.192 104.968C473.8 105.04 475.408 105.064 476.296 104.968C477.424 104.872 478.168 104.632 478.888 103.864C479.848 102.808 480.352 100.12 480.784 93.592C480.856 93.208 480.88 92.344 480.88 92.344H471.616C471.736 91.312 471.808 90.256 471.88 89.224H483.496Z" fill="#333333"/>
<path d="M63.96 207.24H98.68V210.76H63.96V207.24ZM63.96 198.44H98.68V201.88H63.96V198.44ZM63.96 189.56H98.68V193H63.96V189.56ZM108.36 216.52V183.88H82.28C86.36 181 88.76 177.56 90.12 174.04H98.2V182.44H106.68V174.04H116.76V167.16H91.72C91.8 166.36 91.8 165.56 91.8 164.84V164.44C99.24 163.8 107.48 162.76 113.64 161L107.88 155.32C103.56 156.6 96.6 157.8 89.96 158.6L83.56 157.08V164.36C83.56 167.4 83.08 170.6 80.76 173.64V167.16H58.76C58.84 166.36 58.84 165.48 58.84 164.76V164.36C65.8 163.8 73.4 162.68 79.16 160.92L73.32 155.32C69.32 156.6 62.92 157.8 56.68 158.52L50.6 157V164.28C50.6 169.56 49.64 176.12 43.8 181.4C45.72 182.52 48.76 185.56 50.04 187.32C54.28 183.48 56.52 178.6 57.72 174.04H64.76V182.36H73.24V174.04H80.44C79.32 175.4 77.8 176.76 75.8 178.04C77.48 179.16 80.12 181.88 81.32 183.88H54.76V216.52H66.6C61.08 219.24 52.36 221.8 44.6 223.24C46.6 224.92 49.96 228.36 51.64 230.2C59.72 227.96 69.96 224.04 76.6 219.72L69.32 216.52H92.68L85.48 220.68C93.56 223.72 101.72 227.48 106.28 230.12L117.32 225.88C111.88 223.24 102.68 219.4 94.52 216.52H108.36ZM149.24 165.56V169.88H137V165.56H149.24ZM137 180.84V176.28H149.24V180.84H137ZM158.12 188.04V158.28H127.56V229.96H137V188.04H158.12ZM167.32 201.4V210.84H154.12V201.4H167.32ZM176.2 218.68V193.56H145.24V223.16H154.12V218.68H176.2ZM172.68 180.92V176.28H185.32V180.92H172.68ZM185.32 165.48V169.88H172.68V165.48H185.32ZM195 158.28H163.64V188.12H185.32V218.44C185.32 219.88 184.76 220.36 183.24 220.36C181.72 220.44 176.28 220.52 171.64 220.2C173 222.76 174.52 227.24 174.84 229.96C182.2 229.96 187.24 229.72 190.52 228.12C193.88 226.6 195 223.88 195 218.6V158.28Z" fill="#333333"/>
<path d="M78.76 290.16C76.76 288.72 71.84 286.04 69 284.8L66.44 288.72C69.16 289.92 73.68 292.52 75.96 294.36L78.76 290.16ZM63.84 284.08C62.28 284.56 60.44 285 58.52 285.32C59.08 283.2 59.56 281.2 59.88 279.92L54.4 279.36C54.32 281.4 53.88 283.8 53.32 286C52.12 286.08 50.92 286.12 49.76 286.12C48.32 286.12 46.2 286.04 44.48 285.84L44.84 290.48C46.56 290.56 48.16 290.6 49.8 290.6C50.48 290.6 51.16 290.6 51.84 290.56C50.08 294.84 46.96 300.68 43.76 304.56L48.6 307C51.8 302.48 55.2 295.6 57.08 290.04C59.72 289.68 62.16 289.16 63.96 288.68L63.84 284.08ZM64.8 306.12C64.8 308.24 63.92 309.8 61.24 309.8C59.08 309.8 57.84 308.8 57.84 307.32C57.84 305.92 59.32 304.96 61.6 304.96C62.72 304.96 63.76 305.12 64.8 305.36V306.12ZM64.16 292.24C64.28 294.64 64.48 298.12 64.6 301.08C63.76 301 62.84 300.92 61.92 300.92C56.4 300.92 53.16 303.92 53.16 307.8C53.16 312.16 57.04 314.36 61.96 314.36C67.6 314.36 69.6 311.48 69.6 307.8V307.44C71.76 308.76 73.56 310.36 74.96 311.64L77.6 307.4C75.6 305.6 72.8 303.6 69.4 302.32C69.28 300.36 69.2 298.44 69.16 297.32C69.12 295.56 69.04 293.92 69.16 292.24H64.16ZM104.32 281.92L98.68 279.64C97.96 281.32 97.24 282.6 96.72 283.68C94.64 287.44 86.28 304.08 83.36 312L88.96 313.88C89.56 311.8 90.88 307.4 91.96 305.08C93.36 301.84 95.56 299.12 98.28 299.12C99.72 299.12 100.48 299.92 100.6 301.32C100.72 302.92 100.68 306.16 100.84 308.28C101 311.16 103.08 313.8 107.4 313.8C113.52 313.8 117.2 309.32 119.24 302.48L114.96 299C113.84 303.92 111.68 308.36 108.28 308.36C106.96 308.36 105.88 307.76 105.76 306.2C105.52 304.56 105.64 301.36 105.56 299.6C105.4 296.32 103.6 294.4 100.64 294.4C99.12 294.4 97.6 294.76 96.12 295.6C98.08 292.12 101.08 286.6 103.04 283.76C103.48 283.12 103.92 282.4 104.32 281.92ZM148.608 291.2L145.648 292.44C146.928 294.24 147.768 295.8 148.768 298L151.808 296.64C151.048 295.04 149.568 292.64 148.608 291.2ZM153.088 289.36L150.168 290.72C151.448 292.48 152.368 293.96 153.448 296.12L156.448 294.68C155.608 293.12 154.088 290.76 153.088 289.36ZM121.928 284.64L122.448 290.08C127.048 289.08 135.368 288.2 138.808 287.84C136.128 289.84 132.968 294.32 132.968 300.04C132.968 308.64 140.808 313.12 149.128 313.64L150.968 308.16C144.248 307.84 138.168 305.48 138.168 298.96C138.168 294.28 141.728 289.16 146.528 287.88C148.648 287.4 152.048 287.36 154.168 287.36L154.128 282.24C151.328 282.36 147.008 282.6 142.928 282.92C135.688 283.56 129.128 284.16 125.808 284.44C125.048 284.52 123.528 284.6 121.928 284.64ZM185.128 295.64C187.688 298.08 189.208 300.64 189.208 303.32C189.208 306.6 186.168 309.12 180.648 309.12C176.728 309.12 174.728 307.32 174.728 304.08C174.728 303.36 174.808 302.36 174.888 301.2C175.408 301.2 175.968 301.2 176.488 301.2C178.928 301.2 181.248 301.04 183.488 300.84L183.608 296.12C181.008 296.4 178.088 296.6 175.648 296.6H175.368C175.568 294.84 175.808 292.96 176.048 291.2C179.248 291.2 181.408 291.08 183.768 290.84L183.928 286.12C182.048 286.4 179.488 286.56 176.648 286.6C176.848 285.32 176.968 284.28 177.088 283.6C177.248 282.56 177.448 281.52 177.768 280.08L172.208 279.76C172.288 281.08 172.208 282.2 172.128 283.28C172.048 284.16 171.968 285.24 171.808 286.44C168.928 286.2 165.968 285.72 163.688 284.96L163.408 289.56C165.728 290.2 168.528 290.68 171.288 290.96C171.048 292.76 170.848 294.6 170.608 296.36C168.048 296.12 165.368 295.68 162.808 294.8L162.528 299.6C164.648 300.2 167.248 300.64 170.128 300.92C169.968 302.56 169.848 303.96 169.848 304.92C169.848 311.52 174.248 314.24 180.488 314.24C189.168 314.24 194.528 309.92 194.528 303.96C194.528 300.6 193.328 297.8 190.688 294.44L185.128 295.64ZM222.248 300.12H215.208V293.2H222.248V300.12ZM210.728 289.04V304.24H227.048V289.04H210.728ZM206.888 308.88V284.32H230.928V308.88H206.888ZM201.928 279.44V315.44H206.888V313.32H230.928V315.44H236.128V279.44H201.928ZM266.208 306.52V310.28H251.688V306.52H266.208ZM247.128 315.48H251.688V314.4H266.208V315.36H270.968V302.44H247.128V315.48ZM253.888 295.92C255.848 294.44 257.568 292.88 258.848 291.36C260.208 292.88 261.968 294.44 263.968 295.92H253.888ZM265.368 285.28C266.448 286.88 267.608 288.72 268.088 290L272.488 288.44C272.088 287.52 271.368 286.4 270.568 285.28H277.048V281.28H265.888C266.248 280.44 266.608 279.6 266.928 278.76L262.248 277.68C261.408 280.12 260.008 282.56 258.328 284.48V281.28H249.648C250.048 280.48 250.368 279.64 250.688 278.84L246.128 277.68C244.848 281.36 242.528 285.2 239.968 287.56C241.088 288.16 243.008 289.44 243.928 290.16C245.128 288.84 246.368 287.16 247.528 285.28H247.928C248.888 286.88 249.768 288.76 250.128 290L254.328 288.6C254.008 287.64 253.368 286.44 252.688 285.28H257.568C257.248 285.56 256.968 285.84 256.648 286.08C257.208 286.36 257.968 286.84 258.728 287.36H256.408C253.168 291.52 246.768 296.16 240.048 298.64C240.968 299.64 242.088 301.32 242.608 302.32C245.528 301.12 248.408 299.6 251.048 297.88V299.8H267.088V298.04C269.768 299.72 272.648 301.2 275.288 302.24C276.048 301 277.008 299.4 278.088 298.28C272.088 296.48 265.808 292.76 261.488 287.96C262.208 287.2 262.888 286.28 263.568 285.28H265.368ZM287.528 280.32C287.888 281.88 288.048 283.8 288.048 285.68C288.048 289.08 287.648 299.48 287.648 304.8C287.648 311.56 291.848 314.4 298.328 314.4C307.368 314.4 312.968 309.12 315.528 305.36L311.928 300.92C309.088 305.24 304.928 309 298.368 309C295.328 309 292.928 307.72 292.928 303.72C292.928 298.8 293.208 289.92 293.408 285.68C293.448 284.08 293.648 282.08 293.928 280.4L287.528 280.32ZM338.088 306.76C338.088 309.04 336.728 309.68 334.608 309.68C331.888 309.68 330.488 308.72 330.488 307.24C330.488 305.88 332.008 304.8 334.808 304.8C335.928 304.8 337.008 304.92 338.048 305.08C338.088 305.76 338.088 306.32 338.088 306.76ZM353.928 307.76C351.648 305.84 347.848 303.2 342.848 301.76C342.728 300.24 342.648 298.64 342.568 297.16C346.408 297.04 349.488 296.76 353.048 296.36V291.68C349.808 292.08 346.488 292.44 342.488 292.6L342.528 288.48C346.328 288.28 349.528 287.96 352.128 287.72L352.008 283.16C348.568 283.68 345.648 284 342.568 284.12L342.608 282.56C342.648 281.56 342.768 280.56 342.888 279.76H337.488C337.648 280.52 337.688 281.76 337.688 282.48V284.28H335.728C333.288 284.28 329.608 284 327.128 283.52L327.168 288.04C329.448 288.4 333.248 288.64 335.768 288.64H337.648V292.76H335.768C333.648 292.76 328.488 292.48 326.208 292.04L326.168 296.72C328.808 297.04 333.368 297.24 335.688 297.24H337.728C337.768 298.4 337.808 299.64 337.888 300.84C337.088 300.76 336.288 300.72 335.448 300.72C329.328 300.72 325.648 303.52 325.648 307.52C325.648 311.72 329.008 314.12 335.328 314.12C340.568 314.12 343.128 311.52 343.128 308.12C343.128 307.72 343.128 307.24 343.088 306.72C346.248 308.16 348.968 310.2 351.088 312.2L353.928 307.76ZM375.128 298.84C375.128 296.76 376.648 295.72 378.168 295.72C379.288 295.72 380.208 296.16 380.768 297.12C381.288 300.56 379.808 301.8 378.168 301.8C376.608 301.8 375.128 300.68 375.128 298.84ZM396.248 284.48C394.168 284.44 388.768 284.48 384.768 284.48C384.768 284 384.808 283.6 384.808 283.28C384.848 282.64 384.968 280.52 385.088 279.88H379.328C379.488 280.52 379.608 282.04 379.688 283.32C379.728 283.6 379.728 284.04 379.728 284.52C374.408 284.6 367.208 284.8 362.688 284.8L362.808 289.6C367.688 289.32 373.808 289.08 379.808 289L379.848 291.64C379.368 291.56 378.848 291.52 378.288 291.52C373.968 291.52 370.368 294.44 370.368 298.92C370.368 303.76 374.128 306.2 377.208 306.2C377.848 306.2 378.448 306.12 379.008 306C376.808 308.36 373.328 309.68 369.328 310.52L373.528 314.76C383.208 312.04 386.248 305.48 386.248 300.32C386.248 298.24 385.768 296.32 384.768 294.84C384.768 293.12 384.768 290.96 384.728 288.96C390.088 288.96 393.808 289.04 396.208 289.16L396.248 284.48ZM416.968 301.72H421.088L422.488 288.04L422.688 282.08H415.368L415.528 288.04L416.968 301.72ZM419.008 312.36C421.368 312.36 423.168 310.76 423.168 308.44C423.168 306.16 421.368 304.48 419.008 304.48C416.648 304.48 414.848 306.16 414.848 308.44C414.848 310.76 416.648 312.36 419.008 312.36Z" fill="#333333"/>
<rect x="17.5" y="18.5" width="539" height="539" stroke="#C8C8C8"/>
<path fill-rule="evenodd" clip-rule="evenodd" d="M540.39 408.592C544.077 404.265 546.571 398.962 546.155 393.02C544.953 375.9 521.121 379.666 516.485 388.307C511.849 396.948 512.4 418.866 518.392 420.411C520.781 421.027 525.871 419.518 531.052 416.395L527.8 439.4H547L540.39 408.592Z" fill="#915B3C"/>
<path fill-rule="evenodd" clip-rule="evenodd" d="M541.866 412.446C544.275 401.726 551.141 394.418 550.092 389.626C549.393 386.431 547.53 384.445 544.503 383.666C542.938 377.333 537.888 374.639 529.356 375.585C516.557 377.003 508.745 382.319 512.118 394.015C515.219 394.015 518.963 392.893 524.14 394.815C525.782 395.424 526.957 397.315 527.664 400.487H530.004C532.274 396.723 534.513 395.34 536.72 396.337C538.926 397.335 539.428 399.758 538.225 403.607L539.377 412.446H541.866Z" fill="#191847"/>
<path fill-rule="evenodd" clip-rule="evenodd" d="M600.6 539.4H508.6C501.531 539.4 495.8 545.131 495.8 552.2V625.8C495.8 632.87 501.531 638.6 508.6 638.6H600.6C607.67 638.6 613.4 632.87 613.4 625.8V552.2C613.4 545.131 607.67 539.4 600.6 539.4ZM587.8 561.8C589.568 561.8 591 563.233 591 565V613C591 614.768 589.568 616.2 587.8 616.2H521.4C519.633 616.2 518.2 614.768 518.2 613V565C518.2 563.233 519.633 561.8 521.4 561.8H587.8Z" fill="#C5CFD6"/>
<path fill-rule="evenodd" clip-rule="evenodd" d="M416.473 634.6C432.246 615.339 442.918 601.06 448.49 591.763C458.03 575.844 465.838 561.679 468.302 556.267C474.178 543.364 454.775 537.322 450.384 543.341C443.737 552.45 429.543 581.114 407.8 629.334L416.473 634.6Z" fill="#B28B67"/>
<path fill-rule="evenodd" clip-rule="evenodd" d="M448.794 629L478.148 555.109C484.427 541.64 454.108 532.786 449.494 539.054C439.019 553.286 414.121 609.427 411 613.667L448.794 629Z" fill="#2F3676"/>
<path fill-rule="evenodd" clip-rule="evenodd" d="M526.974 614.182C521.256 605.841 500.457 577.78 489.129 566.169C485.874 562.833 482.697 559.63 479.693 556.646C470.763 547.776 452.981 562.685 461.894 570.764C484.092 590.884 516.479 618.046 519.185 620.468C522.978 623.862 530.567 619.424 526.974 614.182Z" fill="#915B3C"/>
<path fill-rule="evenodd" clip-rule="evenodd" d="M488.711 558.8C513.108 554.826 529.45 552.108 537.736 550.647C561.355 546.482 568.242 533.772 564.17 506.042H520.653C514.894 507.705 490.832 517.99 448.467 536.898C440.844 540.681 442.264 551.838 443.657 555.514C443.714 555.664 456.564 577.683 482.207 621.57L517.805 598.893L488.644 561.473C487.874 559.921 487.896 559.031 488.711 558.8Z" fill="#5C63AB"/>
<path fill-rule="evenodd" clip-rule="evenodd" d="M485.575 495.57L460.057 514.309C453.136 516.177 447.353 518.5 442.709 521.28C441.613 522.279 440.287 524.304 444.836 523.954C449.385 523.604 454.186 523.441 454.814 524.992C455.441 526.544 452.688 528.4 453.957 530.493C454.803 531.889 458.8 528.389 465.946 519.994L491.216 509.515L485.575 495.57ZM583.554 496.217L566.836 496.283C577.159 529.606 582.731 547.287 583.554 549.326C585.405 553.913 581.488 560.9 579.813 564.655C585.269 567.096 584.687 558.055 591.57 561.257C597.852 564.179 602.631 569.475 609.889 564.997C610.781 564.446 611.759 562.373 609.397 560.753C603.51 556.717 595.028 549.653 593.882 547.328C592.319 544.157 588.876 527.12 583.554 496.217Z" fill="#915B3C"/>
<path fill-rule="evenodd" clip-rule="evenodd" d="M536.044 426.066L529.127 424.88C503.46 447.052 492.918 489.648 461.457 512.212L469.029 521.599C523.608 514.841 537.136 462.884 536.044 426.066Z" fill="#E87613"/>
<path fill-rule="evenodd" clip-rule="evenodd" d="M566.2 513.001C538.463 513.001 518.06 513.001 504.991 513.001C502.194 513.001 502.721 508.962 503.125 506.924C507.792 483.404 526.007 458.05 526.007 424.569L543.663 421.801C558.266 445.288 563.316 474.204 566.2 513.001Z" fill="#DDE3E9"/>
<path fill-rule="evenodd" clip-rule="evenodd" d="M565.709 444.887C568.273 444.15 570.303 442.431 571.8 439.73C578.254 428.086 575.923 421.675 569.027 419.567C562.13 417.46 555.98 421.801 544.992 421.801C544.395 421.801 543.847 421.838 543.35 421.913L537.823 422.229C521.965 475.973 517.592 511.83 524.703 529.801H572.879C575.733 536.457 578.465 542.057 581.073 546.601H594.2C595.436 506.655 585.939 472.75 565.709 444.887Z" fill="#FF9B21"/>
<path fill-rule="evenodd" clip-rule="evenodd" d="M562.388 502.199C560.873 514.876 558.41 524.077 555 529.801H572.879C569.549 522.037 566.052 512.837 562.388 502.199V502.199Z" fill="black" fill-opacity="0.1"/>
</g>
<defs>
<clipPath id="clip0">
<rect width="575" height="575" fill="white"/>
</clipPath>
</defs>
</svg>
