<svg width="380" height="480" viewBox="0 0 380 480" fill="none" xmlns="http://www.w3.org/2000/svg">
<path fill-rule="evenodd" clip-rule="evenodd" d="M217.763 72.2902C221.21 84.9923 225.702 113.544 221.118 118.022H192.118C192.115 117.971 192.112 117.92 192.109 117.868C181.36 116.679 173 107.566 173 96.5V75.5C173 63.6259 182.626 54 194.5 54H196.5C207.284 54 216.213 61.9385 217.763 72.2902Z" fill="#191847"/>
<path fill-rule="evenodd" clip-rule="evenodd" d="M184.263 92.4901C179.655 87.0814 176.536 80.4529 177.057 73.0255C178.559 51.625 208.349 56.3328 214.144 67.1339C219.939 77.9351 219.25 105.333 211.761 107.263C208.774 108.033 202.411 106.147 195.936 102.244L200 131H176L184.263 92.4901Z" fill="#D4A181"/>
<path fill-rule="evenodd" clip-rule="evenodd" d="M190.75 88.8748C191.856 100.753 191.413 114.317 188.118 117.537H159.118C157.502 89.4635 173.118 100.335 173.118 73.9028C174.091 72.9515 175.011 72.01 175.922 71.1981L175.889 70.4207C180.911 60.1402 187.282 55 195.002 55C206.582 55 210.237 60.3883 213.349 64.9631C211.022 72.9482 201.991 74.1322 193.966 79.1095C193.02 78.341 191.814 77.8804 190.5 77.8804C187.463 77.8804 185 80.3428 185 83.3804C185 86.418 187.463 88.8804 190.5 88.8804C190.584 88.8804 190.668 88.8785 190.75 88.8748Z" fill="#191847"/>
<path fill-rule="evenodd" clip-rule="evenodd" d="M137.408 312.089C161.398 318.798 182.095 322.153 199.5 322.153C216.905 322.153 233.072 316.987 248 306.654C224.525 299.767 205.191 296.323 190 296.323C174.809 296.323 157.279 301.578 137.408 312.089Z" fill="#1F28CF"/>
<path fill-rule="evenodd" clip-rule="evenodd" d="M220.267 331.824C220.036 331.477 219.841 331.098 219.686 330.689C216.479 322.208 165.117 230.726 160 214H217.827C221.717 226.717 239.228 306.52 241.692 322.442C249.467 347.557 265.476 428.895 267.519 434.53C269.669 440.458 257.573 446.633 254.349 439.346C249.22 427.75 236.999 395.665 231.558 376.074C226.456 357.708 222.302 341.185 220.267 331.824Z" fill="#BA8B72"/>
<path fill-rule="evenodd" clip-rule="evenodd" d="M172.957 342.994C149.476 348.928 63.5844 359.658 57.6901 361.341C51.6268 363.072 46.3104 350.574 53.805 347.867C65.7302 343.559 98.5895 333.606 118.512 329.544C134.537 326.277 149.159 323.611 158.977 322.05C158.145 294.473 154.343 228.294 156.835 214H208C205.611 227.707 185.41 327.718 181.656 337.729C180.464 341.302 176.909 342.882 172.957 342.994Z" fill="#D4A181"/>
<path fill-rule="evenodd" clip-rule="evenodd" d="M54.3493 344.539C51.2139 343.956 48.9162 343.793 47.456 344.05C45.6801 344.363 43.1408 345.116 39.8381 346.309C40.2014 348.369 43.4661 366.884 49.6322 401.853C54.6586 402.455 57.0879 401.168 56.92 397.991C56.7521 394.814 56.6401 392.17 56.5841 390.059L63.5411 362.213C63.675 361.677 63.3491 361.134 62.8133 361C62.8042 360.998 62.795 360.996 62.7857 360.994L58.4676 360.044C56.6168 357.402 55.5326 355.181 55.2153 353.381C54.9574 351.919 55.1919 349.795 55.9188 347.01L55.9188 347.01C56.1977 345.941 55.5575 344.849 54.4887 344.57C54.4426 344.558 54.3961 344.547 54.3493 344.539Z" fill="#E4E4E4"/>
<path fill-rule="evenodd" clip-rule="evenodd" d="M250.679 438.402C249.56 441.388 249 443.623 249 445.106C249 446.909 249.301 449.54 249.902 453C251.994 453 270.794 453 306.304 453C307.769 448.155 306.923 445.539 303.765 445.152C300.607 444.766 297.984 444.417 295.896 444.106L269.68 432.419C269.176 432.194 268.585 432.421 268.36 432.925C268.356 432.934 268.352 432.942 268.349 432.951L266.664 437.039C263.74 438.403 261.365 439.085 259.537 439.085C258.052 439.085 256.001 438.485 253.385 437.286L253.385 437.285C252.381 436.825 251.194 437.266 250.733 438.27C250.714 438.313 250.695 438.357 250.679 438.402Z" fill="#E4E4E4"/>
<path fill-rule="evenodd" clip-rule="evenodd" d="M157.001 214C179.547 207.549 200.881 207.549 221.001 214C228.001 245.938 245.01 258.614 248.001 307.579C214.001 324.473 172.001 295.531 137.001 312.005C127.001 288.961 141.001 233.465 157.001 214Z" fill="#2B44FF"/>
<path fill-rule="evenodd" clip-rule="evenodd" d="M254 174.311L293.483 168.925C301.381 164.532 308.647 161.558 315.281 160.003C317.148 159.948 320.118 160.627 315.693 164.315C311.269 168.003 306.781 172.083 307.569 174.051C308.357 176.02 312.471 175.287 313.153 178.315C313.607 180.333 306.93 180.661 293.121 179.299L261.084 192L254 174.311ZM129.97 183.45L151.868 183.532C127.856 237.566 115.337 265.857 114.308 268.406C111.994 274.14 116.891 282.874 118.985 287.567C112.165 290.619 112.892 279.317 104.288 283.319C96.4355 286.973 90.462 293.592 81.3894 287.994C80.2739 287.306 79.0516 284.715 82.0049 282.69C89.3627 277.645 99.9656 268.815 101.398 265.908C103.352 261.945 112.876 234.459 129.97 183.45Z" fill="#D4A181"/>
<path fill-rule="evenodd" clip-rule="evenodd" d="M189.95 114L207.095 115.142C211.317 153.343 234.317 177.472 285.812 169.304L292.653 218.498C244.523 224.718 202.313 205.449 193.663 153.278C191.424 139.773 189.655 125.717 189.95 114Z" fill="#AFB9C5"/>
<path fill-rule="evenodd" clip-rule="evenodd" d="M181.491 109.016L207.468 114.965C207.468 159.644 221.7 188.15 229 221H158.844C157.856 232.351 157.249 244.018 156.932 256H104.402C116.306 192.664 141.43 143.664 179.776 109H181.477L181.491 109.016Z" fill="#C5CFD6"/>
<path fill-rule="evenodd" clip-rule="evenodd" d="M169.913 157.259C168.105 185.1 169.168 206.347 173.103 221H158.844C160.802 198.513 164.256 177.267 169.913 157.259V157.259Z" fill="black" fill-opacity="0.1"/>
</svg>
