<svg width="380" height="480" viewBox="0 0 380 480" fill="none" xmlns="http://www.w3.org/2000/svg">
<path fill-rule="evenodd" clip-rule="evenodd" d="M184.373 86.2997C179.567 80.6589 176.314 73.7461 176.858 66.0001C178.424 43.6816 209.492 48.5914 215.535 59.8558C221.579 71.1203 220.861 99.6934 213.05 101.707C209.935 102.51 203.3 100.543 196.546 96.4723L200.785 126.461H175.756L184.373 86.2997Z" fill="#B28B67"/>
<path fill-rule="evenodd" clip-rule="evenodd" d="M226.624 44.2401C226.106 42.4182 224.712 40.8583 222.833 40.3955C222.377 40.2833 221.907 40.238 221.438 40.2569C221.27 40.2636 221.223 40.3121 221.144 40.1945C221.086 40.1073 221.084 39.8943 221.06 39.7918C220.986 39.4732 220.892 39.1586 220.777 38.8521C220.384 37.8067 219.723 36.8816 218.927 36.1022C217.437 34.6443 215.425 33.638 213.333 33.456C212.189 33.3564 211.053 33.5423 209.971 33.9146C209.411 34.1074 208.867 34.3474 208.338 34.6127C208.179 34.6925 207.662 35.0837 207.502 35.0583C207.326 35.0304 206.971 34.5917 206.828 34.4815C205.053 33.1202 202.862 32.5849 200.652 32.6009C198.157 32.6197 195.755 32.7444 193.675 34.2651C193.234 34.5871 192.815 34.9396 192.415 35.3107C192.205 35.5061 192.001 35.7088 191.807 35.92C191.69 36.0474 191.576 36.1777 191.466 36.3114C191.279 36.5385 191.309 36.613 191.048 36.4546C190.047 35.8463 188.887 35.5618 187.718 35.7054C187.024 35.7908 186.349 35.9991 185.708 36.2733C185.49 36.3667 184.984 36.7391 184.752 36.7427C184.521 36.7462 184.023 36.4011 183.785 36.3133C182.501 35.8393 181.117 35.7225 179.767 35.9415C178.375 36.1675 177.008 36.723 175.828 37.4905C175.261 37.8597 174.766 38.2688 174.368 38.8178C174.196 39.0549 174.041 39.3056 173.847 39.5254C173.733 39.6541 173.507 39.7861 173.446 39.949C173.483 39.8515 171.923 39.2504 171.776 39.212C170.993 39.0073 170.194 39.0488 169.427 39.3014C167.984 39.7763 166.742 40.8415 165.722 41.9335C165.198 42.4945 164.74 43.1145 164.351 43.7751C164.164 44.0915 163.994 44.4169 163.837 44.7493C163.762 44.9103 163.712 45.1118 163.612 45.2568C163.484 45.4437 163.397 45.4473 163.165 45.5288C161.984 45.9426 160.907 46.643 160.087 47.5895C159.257 48.547 158.719 49.7262 158.494 50.968C158.48 51.0411 158.472 51.3443 158.43 51.3838C158.371 51.4384 158.133 51.4143 158.044 51.4248C157.732 51.4613 157.423 51.5156 157.119 51.5878C156.557 51.7208 156.01 51.9166 155.492 52.1726C153.475 53.1705 152.033 55.0414 151.327 57.1466C150.586 59.356 150.599 61.8871 151.485 64.0552C151.628 64.4054 151.798 64.7453 151.998 65.0668C152.12 65.2642 152.16 65.2647 152.08 65.4718C151.991 65.7022 151.829 65.9261 151.724 66.1512C151.38 66.8859 151.139 67.6651 150.987 68.4609C150.738 69.7664 150.614 71.1383 150.86 72.4537C150.974 73.0645 151.173 73.6616 151.477 74.2056C151.632 74.483 151.813 74.746 152.017 74.9894C152.123 75.1157 152.236 75.2364 152.354 75.352C152.421 75.4181 152.51 75.4759 152.567 75.5496C152.707 75.7295 152.737 75.5816 152.664 75.8457C152.564 76.2149 152.335 76.5792 152.195 76.9385C152.05 77.3088 151.92 77.6841 151.8 78.0631C151.559 78.8306 151.354 79.612 151.226 80.4068C150.981 81.9328 151.024 83.5588 151.746 84.9593C152.055 85.5584 152.497 86.0839 153.034 86.4927C153.297 86.6927 153.582 86.8651 153.881 87.0067C154.034 87.0795 154.23 87.1108 154.3 87.2592C154.375 87.4188 154.263 87.7357 154.238 87.9141C154.016 89.4662 153.905 91.0958 154.366 92.6168C154.791 94.0177 155.727 95.2546 156.941 96.0736C159.298 97.6622 162.474 97.5726 164.951 96.3008C165.596 95.9693 166.2 95.5576 166.738 95.0721C168.11 96.9186 170.933 96.8602 172.937 96.334C175.435 95.6786 177.439 93.9419 178.594 91.6601C180.172 93.5822 183.486 92.9586 184.581 90.8735C184.849 90.3632 185.008 89.8007 185.086 89.2316C185.127 88.9323 185.101 88.6304 185.132 88.3335C185.171 87.9552 185.424 87.5875 185.569 87.2215C185.852 86.5092 186.028 85.7735 186.035 85.0051C186.039 84.604 185.989 84.2131 185.95 83.8151C185.916 83.457 186.015 83.1232 186.072 82.7697C185.431 82.8751 184.651 82.7024 184.047 82.5167C183.455 82.3344 182.901 81.8544 182.483 81.416C181.512 80.398 180.919 79.0634 180.514 77.7352C179.624 74.8201 179.988 71.3226 182.921 69.7227C184.286 68.9774 188.379 68.9798 190.005 69.3482C191.716 69.7355 193.655 73.51 193.751 73.8647C193.81 74.0843 193.78 74.3561 193.982 74.5024C194.425 74.8241 195.156 74.2658 195.483 73.9903C196.047 73.5148 196.45 72.882 196.798 72.2407C197.558 70.8435 198.17 69.3452 198.603 67.8156C198.936 66.6364 199.149 65.4204 199.585 64.2712C200.019 63.1277 200.703 62.1057 201.765 61.4579C202.922 60.7532 204.247 60.3821 205.517 59.9392C206.775 59.5003 208.011 58.9639 208.987 58.0327C209.201 57.8279 209.41 57.6103 209.582 57.3692C209.718 57.1789 209.853 56.8145 210.061 56.6939C210.384 56.5061 210.855 56.9943 211.134 57.1716C212.511 58.0462 213.66 59.266 214.586 60.5985C215.508 61.9237 216.264 63.1989 216.878 64.6788C217.334 65.7763 217.618 67.1819 218.42 68.0814C218.778 68.483 221.438 68.726 222.299 68.3753C223.161 68.0247 224.127 67.1143 224.416 66.5437C224.712 65.9597 224.783 65.3181 224.656 64.6788C224.582 64.3026 224.43 63.9513 224.347 63.5819C224.277 63.2715 224.213 62.9782 224.062 62.6939C223.776 62.1552 223.287 61.7679 222.697 61.606C223.311 61.0401 223.819 60.3631 224.171 59.6063C224.537 58.82 224.847 57.8639 224.935 57.0009C225.006 56.3 224.896 55.5738 224.512 54.9714C224.11 54.3396 223.397 53.9273 222.78 53.5332C223.722 52.7958 224.529 51.8991 225.192 50.9063C226.481 48.9756 227.279 46.5419 226.624 44.2401Z" fill="#191847"/>
<path fill-rule="evenodd" clip-rule="evenodd" d="M167.491 212.764L217.635 345.448L252.782 443.244H272.823L224.51 212.764L167.491 212.764Z" fill="#1F28CF"/>
<path fill-rule="evenodd" clip-rule="evenodd" d="M155.097 212.764C154.552 258.29 154.946 319.585 153.676 322.423C152.83 324.315 126.495 345.871 74.6729 387.091L85.0027 404.656C146.528 364.98 178.863 342.499 182.009 337.213C186.727 329.284 210.431 256.318 222.764 212.764H155.097Z" fill="#2B44FF"/>
<path fill-rule="evenodd" clip-rule="evenodd" d="M56.4994 398.912L73.9467 385.633L88.0243 402.41C89.1071 415.058 93.2947 429.242 100.587 444.963L97.3914 447.645L71.9177 417.286L64.8008 405.56L63.203 406.901L56.4994 398.912Z" fill="#191847"/>
<path fill-rule="evenodd" clip-rule="evenodd" d="M250.922 462.016L251.965 440.115H273.866C284.251 447.416 297.808 453.325 314.539 457.844V462.016H274.909L261.351 459.93V462.016H250.922Z" fill="#191847"/>
<path fill-rule="evenodd" clip-rule="evenodd" d="M255.887 199.572L289.154 224.001C298.177 226.435 305.715 229.464 311.768 233.088C313.198 234.391 314.926 237.03 308.996 236.574C303.066 236.118 296.807 235.905 295.989 237.927C295.171 239.95 298.759 242.369 297.105 245.098C296.003 246.918 290.793 242.355 281.476 231.411L248.534 217.751L255.887 199.572ZM128.161 200.415L149.954 200.501C136.498 243.941 129.233 266.991 128.161 269.649C125.747 275.629 130.854 284.737 133.038 289.632C125.925 292.815 126.683 281.028 117.711 285.202C109.521 289.012 103.291 295.916 93.8297 290.078C92.6664 289.36 91.3916 286.657 94.4716 284.546C102.145 279.284 113.203 270.075 114.697 267.044C116.734 262.911 121.222 240.701 128.161 200.415Z" fill="#B28B67"/>
<path fill-rule="evenodd" clip-rule="evenodd" d="M190.095 108.965L199.113 107.419C232.573 136.323 246.316 191.852 287.329 221.267L277.457 233.503C206.307 224.694 188.672 156.962 190.095 108.965Z" fill="#E87613"/>
<path fill-rule="evenodd" clip-rule="evenodd" d="M150.783 222.295C186.942 222.295 213.54 222.295 230.577 222.295C234.223 222.295 233.536 217.03 233.009 214.374C226.926 183.712 203.18 150.66 203.18 107.014L180.163 103.405C161.126 134.023 154.543 171.72 150.783 222.295Z" fill="#DDE3E9"/>
<path fill-rule="evenodd" clip-rule="evenodd" d="M151.424 133.501C148.081 132.54 145.434 130.299 143.483 126.778C135.07 111.598 138.108 103.241 147.099 100.494C156.089 97.7466 164.106 103.405 178.43 103.405C179.209 103.405 179.923 103.454 180.571 103.552L187.776 103.963C208.449 174.025 214.15 220.769 204.88 244.196H142.077C138.356 252.873 134.795 260.173 131.394 266.097H114.282C112.671 214.022 125.052 169.823 151.424 133.501Z" fill="#FF9B21"/>
<path fill-rule="evenodd" clip-rule="evenodd" d="M155.753 208.214C157.728 224.74 160.939 236.734 165.384 244.196H142.077C146.418 234.075 150.976 222.081 155.753 208.214H155.753Z" fill="black" fill-opacity="0.1"/>
</svg>
